<svg version="1.1" viewBox="0.0 0.0 3456.0 1920.0" fill="none" stroke="none" stroke-linecap="square" stroke-miterlimit="10" xmlns:xlink="http://www.w3.org/1999/xlink" xmlns="http://www.w3.org/2000/svg"><clipPath id="g2d1b47a84ac_0_46.0"><path d="m0 0l3456.0 0l0 1920.0l-3456.0 0l0 -1920.0z" clip-rule="nonzero"/></clipPath><g clip-path="url(#g2d1b47a84ac_0_46.0)"><path fill="#ffffff" d="m0 0l3456.0 0l0 1920.0l-3456.0 0z" fill-rule="evenodd"/><path fill="#000000" fill-opacity="0.0" d="m1624.315 1740.7167l207.37012 0l0 146.9292l-207.37012 0z" fill-rule="evenodd"/><path fill="#73b092" d="m1723.6555 1821.1012l0 -3.203125l-5.796875 0l0 -1.5l6.09375 -8.65625l1.34375 0l0 8.65625l1.796875 0l0 1.5l-1.796875 0l0 3.203125l-1.640625 0zm0 -4.703125l0 -6.015625l-4.1875 6.015625l4.1875 0zm13.735107 3.125l0 1.578125l-8.828125 0q-0.015625 -0.59375 0.1875 -1.140625q0.34375 -0.90625 1.078125 -1.78125q0.75 -0.875 2.15625 -2.015625q2.171875 -1.78125 2.9375 -2.828125q0.765625 -1.046875 0.765625 -1.96875q0 -0.984375 -0.703125 -1.640625q-0.6875 -0.671875 -1.8125 -0.671875q-1.1875 0 -1.90625 0.71875q-0.703125 0.703125 -0.703125 1.953125l-1.6875 -0.171875q0.171875 -1.890625 1.296875 -2.875q1.140625 -0.984375 3.03125 -0.984375q1.921875 0 3.046875 1.0625q1.125 1.0625 1.125 2.640625q0 0.796875 -0.328125 1.578125q-0.328125 0.78125 -1.09375 1.640625q-0.75 0.84375 -2.53125 2.34375q-1.46875 1.234375 -1.890625 1.6875q-0.421875 0.4375 -0.6875 0.875l6.546875 0z" fill-rule="nonzero"/><g filter="url(#shadowFilter-g2d1b47a84ac_0_46.1)"><use xlink:href="#g2d1b47a84ac_0_46.1" transform="matrix(1.0 0.0 0.0 1.0 0.0 2.0)"/></g><defs><filter id="shadowFilter-g2d1b47a84ac_0_46.1" filterUnits="userSpaceOnUse"><feGaussianBlur in="SourceAlpha" stdDeviation="2.0" result="blur"/><feComponentTransfer in="blur" color-interpolation-filters="sRGB"><feFuncR type="linear" slope="0" intercept="0.0"/><feFuncG type="linear" slope="0" intercept="0.0"/><feFuncB type="linear" slope="0" intercept="0.0"/><feFuncA type="linear" slope="0.5" intercept="0"/></feComponentTransfer></filter></defs><g id="g2d1b47a84ac_0_46.1"><path fill="#ffffff" d="m348.7784 919.81287l0 0c0 -274.65204 212.8942 -497.30148 475.51248 -497.30148l0 0c126.11377 0 247.06226 52.394104 336.23816 145.65622c89.1759 93.262146 139.27429 219.75275 139.27429 351.64526l0 0c0 274.6521 -212.89417 497.3015 -475.51245 497.3015l0 0c-262.6183 0 -475.51248 -222.64941 -475.51248 -497.3015z" fill-rule="evenodd"/><path stroke="#38761d" stroke-width="1.0" stroke-linejoin="round" stroke-linecap="butt" stroke-dasharray="4.0,3.0" d="m348.7784 919.81287l0 0c0 -274.65204 212.8942 -497.30148 475.51248 -497.30148l0 0c126.11377 0 247.06226 52.394104 336.23816 145.65622c89.1759 93.262146 139.27429 219.75275 139.27429 351.64526l0 0c0 274.6521 -212.89417 497.3015 -475.51245 497.3015l0 0c-262.6183 0 -475.51248 -222.64941 -475.51248 -497.3015z" fill-rule="evenodd"/></g><path fill="#73b092" d="m1289.4384 816.45184l0 0c40.333374 198.51624 -38.724487 402.747 -199.74805 516.01105c-161.02362 113.26404 -371.70166 112.833374 -532.3007 -1.0880127c-160.59909 -113.92139 -238.89294 -318.47388 -197.81787 -516.8237z" fill-rule="evenodd"/><path stroke="#38761d" stroke-width="3.0" stroke-linejoin="round" stroke-linecap="butt" d="m1289.4384 816.45184l0 0c40.333374 198.51624 -38.724487 402.747 -199.74805 516.01105c-161.02362 113.26404 -371.70166 112.833374 -532.3007 -1.0880127c-160.59909 -113.92139 -238.89294 -318.47388 -197.81787 -516.8237z" fill-rule="evenodd"/><path fill="#000000" fill-opacity="0.0" d="m388.95163 602.17004l884.0292 0l0 134.77106l-884.0292 0z" fill-rule="evenodd"/><path fill="#38761d" d="m600.11664 681.0012l7.859375 -0.6875q0.5625 4.71875 2.59375 7.75q2.046875 3.03125 6.34375 4.90625q4.296875 1.859375 9.671875 1.859375q4.765625 0 8.421875 -1.40625q3.65625 -1.421875 5.4375 -3.890625q1.78125 -2.484375 1.78125 -5.40625q0 -2.953125 -1.71875 -5.171875q-1.71875 -2.21875 -5.671875 -3.71875q-2.53125 -0.984375 -11.21875 -3.0625q-8.671875 -2.09375 -12.15625 -3.9375q-4.515625 -2.359375 -6.734375 -5.859375q-2.203125 -3.515625 -2.203125 -7.84375q0 -4.78125 2.703125 -8.921875q2.71875 -4.140625 7.90625 -6.28125q5.203125 -2.15625 11.5625 -2.15625q7.0 0 12.34375 2.25q5.359375 2.25 8.234375 6.640625q2.890625 4.375 3.09375 9.921875l-7.984375 0.609375q-0.640625 -5.984375 -4.359375 -9.03125q-3.71875 -3.046875 -10.984375 -3.046875q-7.5625 0 -11.03125 2.78125q-3.453125 2.765625 -3.453125 6.671875q0 3.390625 2.453125 5.578125q2.40625 2.203125 12.5625 4.5q10.171875 2.296875 13.953125 4.015625q5.5 2.53125 8.109375 6.421875q2.625 3.890625 2.625 8.953125q0 5.03125 -2.875 9.484375q-2.875 4.4375 -8.265625 6.921875q-5.390625 2.46875 -12.140625 2.46875q-8.546875 0 -14.328125 -2.484375q-5.78125 -2.5 -9.078125 -7.5q-3.28125 -5.015625 -3.453125 -11.328125zm77.42969 13.3125l1.125 6.828125q-3.265625 0.703125 -5.84375 0.703125q-4.21875 0 -6.546875 -1.328125q-2.3125 -1.34375 -3.265625 -3.515625q-0.9375 -2.171875 -0.9375 -9.125l0 -26.265625l-5.671875 0l0 -6.015625l5.671875 0l0 -11.296875l7.6875 -4.640625l0 15.9375l7.78125 0l0 6.015625l-7.78125 0l0 26.6875q0 3.3125 0.40625 4.265625q0.421875 0.9375 1.34375 1.5q0.921875 0.546875 2.640625 0.546875q1.28125 0 3.390625 -0.296875zm38.808594 -7.78125l7.984375 1.0q-1.890625 7.0 -7.0 10.875q-5.109375 3.859375 -13.0625 3.859375q-10.015625 0 -15.890625 -6.15625q-5.859375 -6.171875 -5.859375 -17.3125q0 -11.515625 5.921875 -17.875q5.9375 -6.359375 15.390625 -6.359375q9.15625 0 14.953125 6.234375q5.8125 6.234375 5.8125 17.53125q0 0.6875 -0.046875 2.0625l-34.03125 0q0.421875 7.515625 4.25 11.515625q3.828125 4.0 9.546875 4.0q4.25 0 7.25 -2.234375q3.015625 -2.234375 4.78125 -7.140625zm-25.40625 -12.5l25.484375 0q-0.515625 -5.75 -2.921875 -8.640625q-3.6875 -4.46875 -9.578125 -4.46875q-5.328125 0 -8.96875 3.578125q-3.625 3.5625 -4.015625 9.53125zm43.01953 27.203125l0 -45.640625l6.953125 0l0 6.921875q2.671875 -4.859375 4.921875 -6.40625q2.265625 -1.546875 4.96875 -1.546875q3.90625 0 7.953125 2.5l-2.671875 7.171875q-2.828125 -1.671875 -5.671875 -1.671875q-2.53125 0 -4.5625 1.53125q-2.015625 1.515625 -2.875 4.21875q-1.28125 4.125 -1.28125 9.03125l0 23.890625l-7.734375 0zm60.632812 -14.703125l7.984375 1.0q-1.890625 7.0 -7.0 10.875q-5.109375 3.859375 -13.0625 3.859375q-10.015625 0 -15.890625 -6.15625q-5.859375 -6.171875 -5.859375 -17.3125q0 -11.515625 5.921875 -17.875q5.9375 -6.359375 15.390625 -6.359375q9.15625 0 14.953125 6.234375q5.8125 6.234375 5.8125 17.53125q0 0.6875 -0.046875 2.0625l-34.03125 0q0.421875 7.515625 4.25 11.515625q3.828125 4.0 9.546875 4.0q4.25 0 7.25 -2.234375q3.015625 -2.234375 4.78125 -7.140625zm-25.40625 -12.5l25.484375 0q-0.515625 -5.75 -2.921875 -8.640625q-3.6875 -4.46875 -9.578125 -4.46875q-5.328125 0 -8.96875 3.578125q-3.625 3.5625 -4.015625 9.53125zm40.222656 4.390625q0 -12.6875 7.046875 -18.78125q5.890625 -5.078125 14.359375 -5.078125q9.40625 0 15.375 6.171875q5.96875 6.171875 5.96875 17.03125q0 8.8125 -2.640625 13.859375q-2.640625 5.046875 -7.6875 7.84375q-5.046875 2.796875 -11.015625 2.796875q-9.59375 0 -15.5 -6.140625q-5.90625 -6.15625 -5.90625 -17.703125zm7.953125 0q0 8.765625 3.8125 13.125q3.828125 4.359375 9.640625 4.359375q5.75 0 9.578125 -4.375q3.828125 -4.390625 3.828125 -13.375q0 -8.46875 -3.859375 -12.828125q-3.84375 -4.359375 -9.546875 -4.359375q-5.8125 0 -9.640625 4.34375q-3.8125 4.34375 -3.8125 13.109375zm60.753906 15.890625l1.125 6.828125q-3.265625 0.703125 -5.84375 0.703125q-4.21875 0 -6.546875 -1.328125q-2.3125 -1.34375 -3.265625 -3.515625q-0.9375 -2.171875 -0.9375 -9.125l0 -26.265625l-5.671875 0l0 -6.015625l5.671875 0l0 -11.296875l7.6875 -4.640625l0 15.9375l7.78125 0l0 6.015625l-7.78125 0l0 26.6875q0 3.3125 0.40625 4.265625q0.421875 0.9375 1.34375 1.5q0.921875 0.546875 2.640625 0.546875q1.28125 0 3.390625 -0.296875zm7.2148438 24.5l-0.859375 -7.265625q2.546875 0.6875 4.4375 0.6875q2.578125 0 4.125 -0.859375q1.546875 -0.859375 2.53125 -2.40625q0.734375 -1.15625 2.359375 -5.75q0.21875 -0.65625 0.6875 -1.890625l-17.3125 -45.734375l8.328125 0l9.5 26.4375q1.84375 5.015625 3.3125 10.5625q1.328125 -5.328125 3.171875 -10.390625l9.765625 -26.609375l7.734375 0l-17.359375 46.421875q-2.796875 7.515625 -4.34375 10.34375q-2.0625 3.828125 -4.734375 5.609375q-2.65625 1.78125 -6.359375 1.78125q-2.234375 0 -4.984375 -0.9375zm44.34375 -0.09375l0 -63.125l7.046875 0l0 5.9375q2.5 -3.484375 5.625 -5.21875q3.140625 -1.75 7.609375 -1.75q5.84375 0 10.3125 3.015625q4.46875 3.0 6.75 8.484375q2.28125 5.484375 2.28125 12.015625q0 7.0 -2.515625 12.609375q-2.515625 5.609375 -7.3125 8.59375q-4.78125 2.984375 -10.0625 2.984375q-3.875 0 -6.953125 -1.625q-3.0625 -1.640625 -5.046875 -4.140625l0 22.21875l-7.734375 0zm7.015625 -40.046875q0 8.8125 3.5625 13.03125q3.5625 4.203125 8.640625 4.203125q5.15625 0 8.828125 -4.359375q3.671875 -4.359375 3.671875 -13.515625q0 -8.71875 -3.59375 -13.0625q-3.578125 -4.34375 -8.5625 -4.34375q-4.953125 0 -8.75 4.625q-3.796875 4.609375 -3.796875 13.421875zm73.17578 7.859375l7.984375 1.0q-1.890625 7.0 -7.0 10.875q-5.109375 3.859375 -13.0625 3.859375q-10.015625 0 -15.890625 -6.15625q-5.859375 -6.171875 -5.859375 -17.3125q0 -11.515625 5.921875 -17.875q5.9375 -6.359375 15.390625 -6.359375q9.15625 0 14.953125 6.234375q5.8125 6.234375 5.8125 17.53125q0 0.6875 -0.046875 2.0625l-34.03125 0q0.421875 7.515625 4.25 11.515625q3.828125 4.0 9.546875 4.0q4.25 0 7.25 -2.234375q3.015625 -2.234375 4.78125 -7.140625zm-25.40625 -12.5l25.484375 0q-0.515625 -5.75 -2.921875 -8.640625q-3.6875 -4.46875 -9.578125 -4.46875q-5.328125 0 -8.96875 3.578125q-3.625 3.5625 -4.015625 9.53125zm40.003845 13.578125l7.65625 -1.203125q0.640625 4.59375 3.578125 7.046875q2.953125 2.453125 8.234375 2.453125q5.328125 0 7.90625 -2.171875q2.578125 -2.171875 2.578125 -5.09375q0 -2.625 -2.28125 -4.125q-1.578125 -1.03125 -7.90625 -2.625q-8.5 -2.140625 -11.796875 -3.703125q-3.28125 -1.578125 -4.984375 -4.34375q-1.6875 -2.78125 -1.6875 -6.125q0 -3.046875 1.390625 -5.640625q1.40625 -2.609375 3.8125 -4.328125q1.796875 -1.328125 4.90625 -2.25q3.125 -0.9375 6.6875 -0.9375q5.375 0 9.4375 1.546875q4.0625 1.546875 5.984375 4.203125q1.9375 2.640625 2.671875 7.0625l-7.5625 1.03125q-0.515625 -3.53125 -2.984375 -5.5q-2.46875 -1.984375 -6.984375 -1.984375q-5.328125 0 -7.609375 1.765625q-2.28125 1.765625 -2.28125 4.125q0 1.5 0.953125 2.703125q0.9375 1.25 2.96875 2.0625q1.15625 0.4375 6.828125 1.984375q8.203125 2.1875 11.4375 3.59375q3.25 1.390625 5.09375 4.0625q1.859375 2.65625 1.859375 6.609375q0 3.859375 -2.265625 7.28125q-2.25 3.421875 -6.5 5.296875q-4.25 1.859375 -9.625 1.859375q-8.890625 0 -13.5625 -3.6875q-4.65625 -3.703125 -5.953125 -10.96875z" fill-rule="nonzero"/><path fill="#000000" fill-opacity="0.0" d="m382.2861 934.785l884.02905 0l0 146.92755l-884.02905 0z" fill-rule="evenodd"/><path fill="#ffffff" d="m512.9491 1039.9287l0 -63.0l12.375 0l25.78125 42.078125l0 -42.078125l11.8125 0l0 63.0l-12.75 0l-25.40625 -41.078125l0 41.078125l-11.8125 0zm60.55078 -23.46875q0 -6.015625 2.953125 -11.640625q2.96875 -5.625 8.40625 -8.59375q5.4375 -2.96875 12.140625 -2.96875q10.359375 0 16.96875 6.734375q6.625 6.71875 6.625 16.984375q0 10.359375 -6.6875 17.171875q-6.6875 6.8125 -16.828125 6.8125q-6.265625 0 -11.96875 -2.828125q-5.6875 -2.84375 -8.65625 -8.3125q-2.953125 -5.484375 -2.953125 -13.359375zm12.375 0.65625q0 6.78125 3.21875 10.390625q3.21875 3.609375 7.953125 3.609375q4.71875 0 7.921875 -3.609375q3.203125 -3.609375 3.203125 -10.484375q0 -6.703125 -3.203125 -10.3125q-3.203125 -3.609375 -7.921875 -3.609375q-4.734375 0 -7.953125 3.609375q-3.21875 3.609375 -3.21875 10.40625zm64.359375 9.796875l12.125 -1.859375q0.765625 3.53125 3.125 5.359375q2.375 1.828125 6.625 1.828125q4.6875 0 7.046875 -1.71875q1.59375 -1.203125 1.59375 -3.234375q0 -1.375 -0.859375 -2.265625q-0.90625 -0.859375 -4.046875 -1.59375q-14.609375 -3.21875 -18.515625 -5.890625q-5.421875 -3.6875 -5.421875 -10.265625q0 -5.9375 4.6875 -9.96875q4.6875 -4.046875 14.53125 -4.046875q9.359375 0 13.90625 3.0625q4.5625 3.046875 6.28125 9.015625l-11.390625 2.109375q-0.71875 -2.671875 -2.765625 -4.078125q-2.046875 -1.421875 -5.828125 -1.421875q-4.765625 0 -6.828125 1.328125q-1.375 0.953125 -1.375 2.453125q0 1.28125 1.203125 2.1875q1.640625 1.203125 11.28125 3.40625q9.640625 2.1875 13.46875 5.359375q3.78125 3.21875 3.78125 8.984375q0 6.265625 -5.25 10.78125q-5.234375 4.515625 -15.5 4.515625q-9.328125 0 -14.765625 -3.78125q-5.4375 -3.78125 -7.109375 -10.265625zm74.12891 -32.625l0 9.625l-8.25 0l0 18.390625q0 5.59375 0.234375 6.515625q0.234375 0.921875 1.0625 1.53125q0.84375 0.59375 2.046875 0.59375q1.671875 0 4.859375 -1.15625l1.03125 9.359375q-4.21875 1.8125 -9.546875 1.8125q-3.265625 0 -5.890625 -1.09375q-2.609375 -1.09375 -3.84375 -2.828125q-1.21875 -1.75 -1.6875 -4.71875q-0.390625 -2.109375 -0.390625 -8.5l0 -19.90625l-5.546875 0l0 -9.625l5.546875 0l0 -9.0625l12.125 -7.046875l0 16.109375l8.25 0zm34.804688 31.109375l12.03125 2.03125q-2.328125 6.609375 -7.34375 10.078125q-5.0 3.453125 -12.515625 3.453125q-11.90625 0 -17.609375 -7.78125q-4.515625 -6.234375 -4.515625 -15.71875q0 -11.34375 5.921875 -17.765625q5.9375 -6.4375 15.0 -6.4375q10.1875 0 16.0625 6.734375q5.890625 6.71875 5.640625 20.59375l-30.25 0q0.125 5.375 2.921875 8.359375q2.796875 2.984375 6.953125 2.984375q2.84375 0 4.765625 -1.546875q1.9375 -1.546875 2.9375 -4.984375zm0.6875 -12.203125q-0.140625 -5.234375 -2.71875 -7.953125q-2.578125 -2.734375 -6.265625 -2.734375q-3.953125 0 -6.53125 2.875q-2.578125 2.875 -2.53125 7.8125l18.046875 0zm33.378906 26.734375l-12.078125 0l0 -45.640625l11.21875 0l0 6.5q2.875 -4.609375 5.171875 -6.0625q2.3125 -1.46875 5.234375 -1.46875q4.125 0 7.9375 2.28125l-3.734375 10.53125q-3.046875 -1.984375 -5.671875 -1.984375q-2.53125 0 -4.296875 1.40625q-1.765625 1.390625 -2.78125 5.046875q-1.0 3.65625 -1.0 15.296875l0 14.09375zm49.121094 -14.53125l12.03125 2.03125q-2.328125 6.609375 -7.34375 10.078125q-5.0 3.453125 -12.515625 3.453125q-11.90625 0 -17.609375 -7.78125q-4.515625 -6.234375 -4.515625 -15.71875q0 -11.34375 5.921875 -17.765625q5.9375 -6.4375 15.0 -6.4375q10.1875 0 16.0625 6.734375q5.890625 6.71875 5.640625 20.59375l-30.25 0q0.125 5.375 2.921875 8.359375q2.796875 2.984375 6.953125 2.984375q2.84375 0 4.765625 -1.546875q1.9375 -1.546875 2.9375 -4.984375zm0.6875 -12.203125q-0.140625 -5.234375 -2.71875 -7.953125q-2.578125 -2.734375 -6.265625 -2.734375q-3.953125 0 -6.53125 2.875q-2.578125 2.875 -2.53125 7.8125l18.046875 0zm19.035156 3.265625q0 -6.015625 2.953125 -11.640625q2.96875 -5.625 8.40625 -8.59375q5.4375 -2.96875 12.140625 -2.96875q10.359375 0 16.96875 6.734375q6.625 6.71875 6.625 16.984375q0 10.359375 -6.6875 17.171875q-6.6875 6.8125 -16.828125 6.8125q-6.265625 0 -11.96875 -2.828125q-5.6875 -2.84375 -8.65625 -8.3125q-2.953125 -5.484375 -2.953125 -13.359375zm12.375 0.65625q0 6.78125 3.21875 10.390625q3.21875 3.609375 7.953125 3.609375q4.71875 0 7.921875 -3.609375q3.203125 -3.609375 3.203125 -10.484375q0 -6.703125 -3.203125 -10.3125q-3.203125 -3.609375 -7.921875 -3.609375q-4.734375 0 -7.953125 3.609375q-3.21875 3.609375 -3.21875 10.40625zm65.09766 -22.828125l0 9.625l-8.25 0l0 18.390625q0 5.59375 0.234375 6.515625q0.234375 0.921875 1.0625 1.53125q0.84375 0.59375 2.046875 0.59375q1.671875 0 4.859375 -1.15625l1.03125 9.359375q-4.21875 1.8125 -9.546875 1.8125q-3.265625 0 -5.890625 -1.09375q-2.609375 -1.09375 -3.84375 -2.828125q-1.21875 -1.75 -1.6875 -4.71875q-0.390625 -2.109375 -0.390625 -8.5l0 -19.90625l-5.546875 0l0 -9.625l5.546875 0l0 -9.0625l12.125 -7.046875l0 16.109375l8.25 0zm2.6640625 0l12.84375 0l10.90625 32.40625l10.65625 -32.40625l12.515625 0l-16.125 43.921875l-2.875 7.953125q-1.59375 4.0 -3.03125 6.09375q-1.4375 2.109375 -3.3125 3.421875q-1.859375 1.3125 -4.59375 2.03125q-2.71875 0.734375 -6.15625 0.734375q-3.484375 0 -6.84375 -0.71875l-1.0625 -9.453125q2.828125 0.546875 5.109375 0.546875q4.203125 0 6.21875 -2.46875q2.03125 -2.46875 3.109375 -6.296875l-17.359375 -45.765625zm54.30078 0l11.265625 0l0 6.703125q2.1875 -3.4375 5.921875 -5.578125q3.75 -2.15625 8.296875 -2.15625q7.953125 0 13.484375 6.234375q5.546875 6.234375 5.546875 17.359375q0 11.4375 -5.59375 17.78125q-5.578125 6.328125 -13.515625 6.328125q-3.78125 0 -6.859375 -1.5q-3.078125 -1.515625 -6.46875 -5.15625l0 22.984375l-12.078125 0l0 -63.0zm11.953125 22.046875q0 7.6875 3.046875 11.375q3.046875 3.671875 7.4375 3.671875q4.203125 0 7.0 -3.375q2.796875 -3.375 2.796875 -11.0625q0 -7.1875 -2.890625 -10.65625q-2.875 -3.484375 -7.125 -3.484375q-4.421875 0 -7.34375 3.421875q-2.921875 3.40625 -2.921875 10.109375zm68.58203 9.0625l12.03125 2.03125q-2.328125 6.609375 -7.34375 10.078125q-5.0 3.453125 -12.515625 3.453125q-11.90625 0 -17.609375 -7.78125q-4.515625 -6.234375 -4.515625 -15.71875q0 -11.34375 5.921875 -17.765625q5.9375 -6.4375 15.0 -6.4375q10.1875 0 16.0625 6.734375q5.890625 6.71875 5.640625 20.59375l-30.25 0q0.125 5.375 2.921875 8.359375q2.796875 2.984375 6.953125 2.984375q2.84375 0 4.765625 -1.546875q1.9375 -1.546875 2.9375 -4.984375zm0.6875 -12.203125q-0.140625 -5.234375 -2.71875 -7.953125q-2.578125 -2.734375 -6.265625 -2.734375q-3.953125 0 -6.53125 2.875q-2.578125 2.875 -2.53125 7.8125l18.046875 0zm17.566406 13.71875l12.125 -1.859375q0.765625 3.53125 3.125 5.359375q2.375 1.828125 6.625 1.828125q4.6875 0 7.046875 -1.71875q1.59375 -1.203125 1.59375 -3.234375q0 -1.375 -0.859375 -2.265625q-0.90625 -0.859375 -4.046875 -1.59375q-14.609375 -3.21875 -18.515625 -5.890625q-5.421875 -3.6875 -5.421875 -10.265625q0 -5.9375 4.6875 -9.96875q4.6875 -4.046875 14.53125 -4.046875q9.359375 0 13.90625 3.0625q4.5625 3.046875 6.28125 9.015625l-11.390625 2.109375q-0.71875 -2.671875 -2.765625 -4.078125q-2.046875 -1.421875 -5.828125 -1.421875q-4.765625 0 -6.828125 1.328125q-1.375 0.953125 -1.375 2.453125q0 1.28125 1.203125 2.1875q1.640625 1.203125 11.28125 3.40625q9.640625 2.1875 13.46875 5.359375q3.78125 3.21875 3.78125 8.984375q0 6.265625 -5.25 10.78125q-5.234375 4.515625 -15.5 4.515625q-9.328125 0 -14.765625 -3.78125q-5.4375 -3.78125 -7.109375 -10.265625z" fill-rule="nonzero"/><path fill="#000000" fill-opacity="0.0" d="m58.755787 1406.0315l1605.4803 0l0 481.60632l-1605.4803 0z" fill-rule="evenodd"/><path fill="#595959" d="m151.95659 1621.2346l0 -76.34375l10.109375 0l0 67.328125l37.59375 0l0 9.015625l-47.703125 0zm59.4265 0l0 -76.34375l15.203125 0l18.0625 54.046875q2.5 7.5625 3.65625 11.3125q1.296875 -4.171875 4.0625 -12.25l18.28125 -53.109375l13.578125 0l0 76.34375l-9.734375 0l0 -63.90625l-22.1875 63.90625l-9.109375 0l-22.078125 -65.0l0 65.0l-9.734375 0zm126.22803 0l-8.6875 0l0 -76.34375l9.375 0l0 27.234375q5.9375 -7.453125 15.140625 -7.453125q5.109375 0 9.65625 2.0625q4.5625 2.0625 7.5 5.78125q2.953125 3.71875 4.609375 8.984375q1.671875 5.265625 1.671875 11.25q0 14.21875 -7.03125 21.984375q-7.03125 7.75 -16.875 7.75q-9.78125 0 -15.359375 -8.171875l0 6.921875zm-0.09375 -28.0625q0 9.9375 2.703125 14.359375q4.421875 7.25 11.96875 7.25q6.15625 0 10.625 -5.34375q4.484375 -5.34375 4.484375 -15.90625q0 -10.828125 -4.296875 -15.984375q-4.296875 -5.15625 -10.390625 -5.15625q-6.140625 0 -10.625 5.34375q-4.46875 5.328125 -4.46875 15.4375zm88.62961 10.25l9.6875 1.203125q-2.296875 8.484375 -8.5 13.171875q-6.1875 4.6875 -15.828125 4.6875q-12.125 0 -19.234375 -7.46875q-7.109375 -7.484375 -7.109375 -20.96875q0 -13.953125 7.1875 -21.65625q7.1875 -7.71875 18.640625 -7.71875q11.09375 0 18.125 7.5625q7.03125 7.546875 7.03125 21.25q0 0.828125 -0.046875 2.484375l-41.25 0q0.515625 9.125 5.15625 13.96875q4.640625 4.84375 11.5625 4.84375q5.15625 0 8.796875 -2.703125q3.640625 -2.71875 5.78125 -8.65625zm-30.78125 -15.15625l30.890625 0q-0.625 -6.96875 -3.546875 -10.46875q-4.484375 -5.40625 -11.609375 -5.40625q-6.453125 0 -10.859375 4.328125q-4.40625 4.3125 -4.875 11.546875zm52.239014 32.96875l0 -76.34375l9.375 0l0 27.390625q6.5625 -7.609375 16.5625 -7.609375q6.140625 0 10.671875 2.421875q4.53125 2.421875 6.484375 6.703125q1.953125 4.265625 1.953125 12.390625l0 35.046875l-9.375 0l0 -35.046875q0 -7.03125 -3.046875 -10.234375q-3.046875 -3.203125 -8.625 -3.203125q-4.15625 0 -7.828125 2.171875q-3.671875 2.15625 -5.234375 5.859375q-1.5625 3.6875 -1.5625 10.203125l0 30.25l-9.375 0zm95.41089 -6.828125q-5.21875 4.4375 -10.03125 6.265625q-4.8125 1.8125 -10.328125 1.8125q-9.125 0 -14.015625 -4.453125q-4.890625 -4.453125 -4.890625 -11.375q0 -4.0625 1.84375 -7.421875q1.84375 -3.359375 4.84375 -5.390625q3.0 -2.03125 6.75 -3.078125q2.75 -0.71875 8.328125 -1.40625q11.34375 -1.34375 16.71875 -3.21875q0.046875 -1.9375 0.046875 -2.453125q0 -5.734375 -2.65625 -8.078125q-3.59375 -3.171875 -10.671875 -3.171875q-6.609375 0 -9.765625 2.328125q-3.15625 2.3125 -4.65625 8.1875l-9.171875 -1.25q1.25 -5.875 4.109375 -9.5q2.875 -3.625 8.28125 -5.578125q5.421875 -1.953125 12.546875 -1.953125q7.09375 0 11.515625 1.671875q4.421875 1.671875 6.5 4.203125q2.09375 2.515625 2.921875 6.375q0.46875 2.390625 0.46875 8.640625l0 12.5q0 13.0625 0.59375 16.53125q0.609375 3.46875 2.375 6.640625l-9.78125 0q-1.46875 -2.921875 -1.875 -6.828125zm-0.78125 -20.921875q-5.109375 2.078125 -15.3125 3.53125q-5.78125 0.828125 -8.1875 1.875q-2.390625 1.046875 -3.6875 3.046875q-1.296875 2.0 -1.296875 4.453125q0 3.75 2.828125 6.25q2.84375 2.5 8.3125 2.5q5.40625 0 9.625 -2.359375q4.21875 -2.375 6.203125 -6.5q1.515625 -3.171875 1.515625 -9.375l0 -3.421875zm39.364014 27.75l-21.03125 -55.3125l9.890625 0l11.875 33.125q1.921875 5.359375 3.546875 11.140625q1.234375 -4.375 3.484375 -10.515625l12.28125 -33.75l9.640625 0l-20.9375 55.3125l-8.75 0zm38.015625 -65.5625l0 -10.78125l9.375 0l0 10.78125l-9.375 0zm0 65.5625l0 -55.3125l9.375 0l0 55.3125l-9.375 0zm20.164368 -27.65625q0 -15.359375 8.53125 -22.75q7.140625 -6.15625 17.390625 -6.15625q11.40625 0 18.640625 7.484375q7.25 7.46875 7.25 20.640625q0 10.671875 -3.203125 16.796875q-3.203125 6.125 -9.328125 9.515625q-6.109375 3.375 -13.359375 3.375q-11.609375 0 -18.765625 -7.4375q-7.15625 -7.453125 -7.15625 -21.46875zm9.625 0q0 10.625 4.640625 15.921875q4.640625 5.28125 11.65625 5.28125q6.984375 0 11.609375 -5.3125q4.640625 -5.3125 4.640625 -16.203125q0 -10.25 -4.65625 -15.53125q-4.65625 -5.296875 -11.59375 -5.296875q-7.015625 0 -11.65625 5.265625q-4.640625 5.25 -4.640625 15.875zm53.06714 27.65625l0 -55.3125l8.4375 0l0 8.390625q3.234375 -5.890625 5.96875 -7.765625q2.734375 -1.875 6.015625 -1.875q4.734375 0 9.625 3.03125l-3.21875 8.6875q-3.4375 -2.03125 -6.875 -2.03125q-3.078125 0 -5.53125 1.859375q-2.4375 1.84375 -3.484375 5.125q-1.5625 5.0 -1.5625 10.9375l0 28.953125l-9.375 0zm65.30609 -65.5625l0 -10.78125l9.375 0l0 10.78125l-9.375 0zm0 65.5625l0 -55.3125l9.375 0l0 55.3125l-9.375 0zm23.648743 0l0 -55.3125l8.4375 0l0 7.875q6.09375 -9.125 17.59375 -9.125q5.0 0 9.1875 1.796875q4.203125 1.796875 6.28125 4.71875q2.09375 2.921875 2.921875 6.921875q0.515625 2.609375 0.515625 9.125l0 34.0l-9.375 0l0 -33.640625q0 -5.734375 -1.09375 -8.5625q-1.09375 -2.84375 -3.875 -4.53125q-2.78125 -1.703125 -6.53125 -1.703125q-5.984375 0 -10.34375 3.8125q-4.34375 3.796875 -4.34375 14.421875l0 30.203125l-9.375 0zm85.199646 -16.515625l9.265625 -1.453125q0.78125 5.578125 4.34375 8.546875q3.578125 2.96875 9.984375 2.96875q6.453125 0 9.578125 -2.625q3.125 -2.640625 3.125 -6.1875q0 -3.171875 -2.765625 -5.0q-1.921875 -1.25 -9.578125 -3.171875q-10.3125 -2.609375 -14.296875 -4.5q-3.984375 -1.90625 -6.046875 -5.265625q-2.046875 -3.359375 -2.046875 -7.421875q0 -3.6875 1.6875 -6.84375q1.703125 -3.15625 4.609375 -5.234375q2.1875 -1.609375 5.96875 -2.734375q3.78125 -1.125 8.09375 -1.125q6.515625 0 11.4375 1.875q4.921875 1.875 7.265625 5.078125q2.34375 3.203125 3.21875 8.578125l-9.15625 1.25q-0.625 -4.28125 -3.625 -6.671875q-3.0 -2.390625 -8.453125 -2.390625q-6.46875 0 -9.234375 2.140625q-2.75 2.125 -2.75 4.984375q0 1.828125 1.140625 3.28125q1.15625 1.515625 3.59375 2.5q1.40625 0.53125 8.28125 2.40625q9.953125 2.65625 13.875 4.34375q3.9375 1.6875 6.171875 4.921875q2.25 3.21875 2.25 8.015625q0 4.6875 -2.734375 8.828125q-2.734375 4.140625 -7.890625 6.40625q-5.15625 2.265625 -11.671875 2.265625q-10.78125 0 -16.4375 -4.46875q-5.640625 -4.484375 -7.203125 -13.296875zm94.9375 -1.296875l9.6875 1.203125q-2.296875 8.484375 -8.5 13.171875q-6.1875 4.6875 -15.828125 4.6875q-12.125 0 -19.234375 -7.46875q-7.109375 -7.484375 -7.109375 -20.96875q0 -13.953125 7.1875 -21.65625q7.1875 -7.71875 18.640625 -7.71875q11.09375 0 18.125 7.5625q7.03125 7.546875 7.03125 21.25q0 0.828125 -0.046875 2.484375l-41.25 0q0.515625 9.125 5.15625 13.96875q4.640625 4.84375 11.5625 4.84375q5.15625 0 8.796875 -2.703125q3.640625 -2.71875 5.78125 -8.65625zm-30.78125 -15.15625l30.890625 0q-0.625 -6.96875 -3.546875 -10.46875q-4.484375 -5.40625 -11.609375 -5.40625q-6.453125 0 -10.859375 4.328125q-4.40625 4.3125 -4.875 11.546875zm52.239014 32.96875l0 -55.3125l8.4375 0l0 7.875q6.09375 -9.125 17.59375 -9.125q5.0 0 9.1875 1.796875q4.203125 1.796875 6.28125 4.71875q2.09375 2.921875 2.921875 6.921875q0.515625 2.609375 0.515625 9.125l0 34.0l-9.375 0l0 -33.640625q0 -5.734375 -1.09375 -8.5625q-1.09375 -2.84375 -3.875 -4.53125q-2.78125 -1.703125 -6.53125 -1.703125q-5.984375 0 -10.34375 3.8125q-4.34375 3.796875 -4.34375 14.421875l0 30.203125l-9.375 0zm79.78589 -8.390625l1.34375 8.28125q-3.953125 0.84375 -7.078125 0.84375q-5.09375 0 -7.90625 -1.609375q-2.8125 -1.625 -3.96875 -4.25q-1.140625 -2.640625 -1.140625 -11.078125l0 -31.8125l-6.875 0l0 -7.296875l6.875 0l0 -13.6875l9.328125 -5.625l0 19.3125l9.421875 0l0 7.296875l-9.421875 0l0 32.34375q0 4.0 0.484375 5.15625q0.5 1.140625 1.609375 1.828125q1.125 0.671875 3.21875 0.671875q1.5625 0 4.109375 -0.375zm47.02307 -9.421875l9.6875 1.203125q-2.296875 8.484375 -8.5 13.171875q-6.1875 4.6875 -15.828125 4.6875q-12.125 0 -19.234375 -7.46875q-7.109375 -7.484375 -7.109375 -20.96875q0 -13.953125 7.1875 -21.65625q7.1875 -7.71875 18.640625 -7.71875q11.09375 0 18.125 7.5625q7.03125 7.546875 7.03125 21.25q0 0.828125 -0.046875 2.484375l-41.25 0q0.515625 9.125 5.15625 13.96875q4.640625 4.84375 11.5625 4.84375q5.15625 0 8.796875 -2.703125q3.640625 -2.71875 5.78125 -8.65625zm-30.78125 -15.15625l30.890625 0q-0.625 -6.96875 -3.546875 -10.46875q-4.484375 -5.40625 -11.609375 -5.40625q-6.453125 0 -10.859375 4.328125q-4.40625 4.3125 -4.875 11.546875zm52.239014 32.96875l0 -55.3125l8.4375 0l0 7.875q6.09375 -9.125 17.59375 -9.125q5.0 0 9.1875 1.796875q4.203125 1.796875 6.28125 4.71875q2.09375 2.921875 2.921875 6.921875q0.515625 2.609375 0.515625 9.125l0 34.0l-9.375 0l0 -33.640625q0 -5.734375 -1.09375 -8.5625q-1.09375 -2.84375 -3.875 -4.53125q-2.78125 -1.703125 -6.53125 -1.703125q-5.984375 0 -10.34375 3.8125q-4.34375 3.796875 -4.34375 14.421875l0 30.203125l-9.375 0zm95.41089 -20.265625l9.21875 1.203125q-1.515625 9.53125 -7.75 14.921875q-6.21875 5.390625 -15.28125 5.390625q-11.34375 0 -18.25 -7.421875q-6.890625 -7.421875 -6.890625 -21.265625q0 -8.96875 2.96875 -15.6875q2.96875 -6.71875 9.03125 -10.078125q6.0625 -3.359375 13.203125 -3.359375q9.0 0 14.734375 4.5625q5.734375 4.5625 7.34375 12.9375l-9.109375 1.40625q-1.3125 -5.5625 -4.625 -8.375q-3.296875 -2.8125 -7.984375 -2.8125q-7.078125 0 -11.515625 5.078125q-4.421875 5.078125 -4.421875 16.0625q0 11.140625 4.265625 16.203125q4.28125 5.046875 11.15625 5.046875q5.515625 0 9.203125 -3.390625q3.703125 -3.390625 4.703125 -10.421875zm55.09375 2.453125l9.6875 1.203125q-2.296875 8.484375 -8.5 13.171875q-6.1875 4.6875 -15.828125 4.6875q-12.125 0 -19.234375 -7.46875q-7.109375 -7.484375 -7.109375 -20.96875q0 -13.953125 7.1875 -21.65625q7.1875 -7.71875 18.640625 -7.71875q11.09375 0 18.125 7.5625q7.03125 7.546875 7.03125 21.25q0 0.828125 -0.046875 2.484375l-41.25 0q0.515625 9.125 5.15625 13.96875q4.640625 4.84375 11.5625 4.84375q5.15625 0 8.796875 -2.703125q3.640625 -2.71875 5.78125 -8.65625zm-30.78125 -15.15625l30.890625 0q-0.625 -6.96875 -3.546875 -10.46875q-4.484375 -5.40625 -11.609375 -5.40625q-6.453125 0 -10.859375 4.328125q-4.40625 4.3125 -4.875 11.546875zm48.489014 16.453125l9.265625 -1.453125q0.78125 5.578125 4.34375 8.546875q3.578125 2.96875 9.984375 2.96875q6.453125 0 9.578125 -2.625q3.125 -2.640625 3.125 -6.1875q0 -3.171875 -2.765625 -5.0q-1.921875 -1.25 -9.578125 -3.171875q-10.3125 -2.609375 -14.296875 -4.5q-3.984375 -1.90625 -6.046875 -5.265625q-2.046875 -3.359375 -2.046875 -7.421875q0 -3.6875 1.6875 -6.84375q1.703125 -3.15625 4.609375 -5.234375q2.1875 -1.609375 5.96875 -2.734375q3.78125 -1.125 8.09375 -1.125q6.515625 0 11.4375 1.875q4.921875 1.875 7.265625 5.078125q2.34375 3.203125 3.21875 8.578125l-9.15625 1.25q-0.625 -4.28125 -3.625 -6.671875q-3.0 -2.390625 -8.453125 -2.390625q-6.46875 0 -9.234375 2.140625q-2.75 2.125 -2.75 4.984375q0 1.828125 1.140625 3.28125q1.15625 1.515625 3.59375 2.5q1.40625 0.53125 8.28125 2.40625q9.953125 2.65625 13.875 4.34375q3.9375 1.6875 6.171875 4.921875q2.25 3.21875 2.25 8.015625q0 4.6875 -2.734375 8.828125q-2.734375 4.140625 -7.890625 6.40625q-5.15625 2.265625 -11.671875 2.265625q-10.78125 0 -16.4375 -4.46875q-5.640625 -4.484375 -7.203125 -13.296875zm96.91382 16.515625l-16.921875 -55.3125l9.6875 0l8.796875 31.921875l3.28125 11.875q0.21875 -0.875 2.875 -11.40625l8.796875 -32.390625l9.625 0l8.28125 32.078125l2.765625 10.578125l3.171875 -10.671875l9.484375 -31.984375l9.109375 0l-17.28125 55.3125l-9.75 0l-8.796875 -33.125l-2.140625 -9.421875l-11.1875 42.546875l-9.796875 0zm66.86743 -65.5625l0 -10.78125l9.375 0l0 10.78125l-9.375 0zm0 65.5625l0 -55.3125l9.375 0l0 55.3125l-9.375 0zm44.11743 -8.390625l1.34375 8.28125q-3.953125 0.84375 -7.078125 0.84375q-5.09375 0 -7.90625 -1.609375q-2.8125 -1.625 -3.96875 -4.25q-1.140625 -2.640625 -1.140625 -11.078125l0 -31.8125l-6.875 0l0 -7.296875l6.875 0l0 -13.6875l9.328125 -5.625l0 19.3125l9.421875 0l0 7.296875l-9.421875 0l0 32.34375q0 4.0 0.484375 5.15625q0.5 1.140625 1.609375 1.828125q1.125 0.671875 3.21875 0.671875q1.5625 0 4.109375 -0.375zm9.163818 8.390625l0 -76.34375l9.375 0l0 27.390625q6.5625 -7.609375 16.5625 -7.609375q6.140625 0 10.671875 2.421875q4.53125 2.421875 6.484375 6.703125q1.953125 4.265625 1.953125 12.390625l0 35.046875l-9.375 0l0 -35.046875q0 -7.03125 -3.046875 -10.234375q-3.046875 -3.203125 -8.625 -3.203125q-4.15625 0 -7.828125 2.171875q-3.671875 2.15625 -5.234375 5.859375q-1.5625 3.6875 -1.5625 10.203125l0 30.25l-9.375 0z" fill-rule="nonzero"/><path fill="#d9ead3" d="m212.44499 1646.8347l758.676 0l0 128.0l-758.676 0l0 -128.0z" fill-rule="nonzero"/><path fill="#000000" fill-opacity="0.0" d="m212.44499 1652.6816l758.676 0l0 122.64429l-758.676 0l0 -122.64429z" fill-rule="nonzero"/><path fill="#38761d" d="m270.41376 1749.2346l-14.64064 0l0 -28.21875q0 -8.96875 -0.9375 -11.59375q-0.9375 -2.625 -3.046875 -4.078125q-2.109375 -1.46875 -5.078125 -1.46875q-3.796875 0 -6.828125 2.09375q-3.015625 2.078125 -4.140625 5.515625q-1.109375 3.4375 -1.109375 12.703125l0 25.046875l-14.640625 0l0 -55.3125l13.59375 0l0 8.125q7.234375 -9.375 18.234375 -9.375q4.8437653 0 8.843765 1.75q4.015625 1.75 6.0625 4.453125q2.0625 2.703125 2.875 6.140625q0.8125 3.4375 0.8125 9.84375l0 34.375zm11.446747 -28.4375q0 -7.28125 3.59375 -14.109375q3.59375 -6.828125 10.1875 -10.421875q6.59375 -3.59375 14.703125 -3.59375q12.5625305 0 20.578156 8.15625q8.015625 8.15625 8.015625 20.59375q0 12.546875 -8.09375 20.8125q-8.09375 8.25 -20.390656 8.25q-7.59375 0 -14.5 -3.4375q-6.90625 -3.4375 -10.5 -10.078125q-3.59375 -6.640625 -3.59375 -16.171875zm15.0 0.78125q0 8.234375 3.90625 12.609375q3.90625 4.375 9.640625 4.375q5.7187805 0 9.5937805 -4.375q3.890625 -4.375 3.890625 -12.703125q0 -8.125 -3.890625 -12.5q-3.875 -4.375 -9.5937805 -4.375q-5.734375 0 -9.640625 4.375q-3.90625 4.375 -3.90625 12.59375zm78.016815 11.875l14.6875 -2.234375q0.9375 4.265625 3.796875 6.484375q2.875 2.203125 8.015625 2.203125q5.6875 0 8.546875 -2.078125q1.921875 -1.453125 1.921875 -3.90625q0 -1.671875 -1.03125 -2.765625q-1.09375 -1.03125 -4.90625 -1.921875q-17.703125 -3.90625 -22.4375 -7.125q-6.5625 -4.484375 -6.5625 -12.453125q0 -7.1875 5.671875 -12.078125q5.6875 -4.90625 17.609375 -4.90625q11.34375 0 16.859375 3.703125q5.53125 3.703125 7.609375 10.9375l-13.796875 2.546875q-0.890625 -3.21875 -3.359375 -4.9375q-2.46875 -1.71875 -7.0625 -1.71875q-5.765625 0 -8.265625 1.609375q-1.671875 1.140625 -1.671875 2.96875q0 1.5625 1.453125 2.65625q1.984375 1.453125 13.671875 4.109375q11.6875 2.65625 16.328125 6.515625q4.578125 3.90625 4.578125 10.875q0 7.609375 -6.359375 13.078125q-6.34375 5.46875 -18.796875 5.46875q-11.296875 0 -17.890625 -4.578125q-6.578125 -4.59375 -8.609375 -12.453125zm89.83273 -39.53125l0 11.671875l-10.0 0l0 22.28125q0 6.78125 0.28125 7.90625q0.296875 1.109375 1.3125 1.84375q1.015625 0.71875 2.46875 0.71875q2.03125 0 5.890625 -1.40625l1.25 11.359375q-5.109375 2.1875 -11.5625 2.1875q-3.953125 0 -7.140625 -1.328125q-3.171875 -1.328125 -4.65625 -3.4375q-1.484375 -2.109375 -2.0625 -5.703125q-0.46875 -2.546875 -0.46875 -10.3125l0 -24.109375l-6.71875 0l0 -11.671875l6.71875 0l0 -10.984375l14.6875 -8.546875l0 19.53125l10.0 0zm42.18924 37.703125l14.578125 2.453125q-2.8125 8.015625 -8.890625 12.21875q-6.0625 4.1875 -15.171875 4.1875q-14.421875 0 -21.34375 -9.421875q-5.46875 -7.5625 -5.46875 -19.0625q0 -13.75 7.1875 -21.53125q7.1875 -7.796875 18.171875 -7.796875q12.34375 0 19.46875 8.15625q7.140625 8.15625 6.828125 24.96875l-36.65625 0q0.15625 6.515625 3.53125 10.140625q3.390625 3.609375 8.4375 3.609375q3.4375 0 5.78125 -1.875q2.34375 -1.875 3.546875 -6.046875zm0.828125 -14.78125q-0.15625 -6.359375 -3.28125 -9.65625q-3.125 -3.3125 -7.609375 -3.3125q-4.78125 0 -7.90625 3.484375q-3.125 3.5 -3.078125 9.484375l21.875 0zm40.47339 32.390625l-14.640625 0l0 -55.3125l13.59375 0l0 7.875q3.484375 -5.578125 6.265625 -7.34375q2.796875 -1.78125 6.328125 -1.78125q5.0 0 9.640625 2.765625l-4.53125 12.765625q-3.703125 -2.40625 -6.875 -2.40625q-3.078125 0 -5.21875 1.703125q-2.125 1.6875 -3.34375 6.125q-1.21875 4.421875 -1.21875 18.53125l0 17.078125zm59.521973 -17.609375l14.578125 2.453125q-2.8125 8.015625 -8.890625 12.21875q-6.0625 4.1875 -15.171875 4.1875q-14.421875 0 -21.34375 -9.421875q-5.46875 -7.5625 -5.46875 -19.0625q0 -13.75 7.1875 -21.53125q7.1875 -7.796875 18.171875 -7.796875q12.34375 0 19.46875 8.15625q7.140625 8.15625 6.828125 24.96875l-36.65625 0q0.15625 6.515625 3.53125 10.140625q3.390625 3.609375 8.4375 3.609375q3.4375 0 5.78125 -1.875q2.34375 -1.875 3.546875 -6.046875zm0.828125 -14.78125q-0.15625 -6.359375 -3.28125 -9.65625q-3.125 -3.3125 -7.609375 -3.3125q-4.78125 0 -7.90625 3.484375q-3.125 3.5 -3.078125 9.484375l21.875 0zm23.067139 3.953125q0 -7.28125 3.59375 -14.109375q3.59375 -6.828125 10.1875 -10.421875q6.59375 -3.59375 14.703125 -3.59375q12.5625 0 20.578125 8.15625q8.015625 8.15625 8.015625 20.59375q0 12.546875 -8.09375 20.8125q-8.09375 8.25 -20.390625 8.25q-7.59375 0 -14.5 -3.4375q-6.90625 -3.4375 -10.5 -10.078125q-3.59375 -6.640625 -3.59375 -16.171875zm15.0 0.78125q0 8.234375 3.90625 12.609375q3.90625 4.375 9.640625 4.375q5.71875 0 9.59375 -4.375q3.890625 -4.375 3.890625 -12.703125q0 -8.125 -3.890625 -12.5q-3.875 -4.375 -9.59375 -4.375q-5.734375 0 -9.640625 4.375q-3.90625 4.375 -3.90625 12.59375zm78.8999 -27.65625l0 11.671875l-10.0 0l0 22.28125q0 6.78125 0.28125 7.90625q0.296875 1.109375 1.3125 1.84375q1.015625 0.71875 2.46875 0.71875q2.03125 0 5.890625 -1.40625l1.25 11.359375q-5.109375 2.1875 -11.5625 2.1875q-3.953125 0 -7.140625 -1.328125q-3.171875 -1.328125 -4.65625 -3.4375q-1.484375 -2.109375 -2.0625 -5.703125q-0.46875 -2.546875 -0.46875 -10.3125l0 -24.109375l-6.71875 0l0 -11.671875l6.71875 0l0 -10.984375l14.6875 -8.546875l0 19.53125l10.0 0zm3.236145 0l15.5625 0l13.234375 39.265625l12.90625 -39.265625l15.15625 0l-19.53125 53.234375l-3.484375 9.625q-1.921875 4.84375 -3.671875 7.390625q-1.75 2.5625 -4.015625 4.140625q-2.25 1.59375 -5.5625 2.484375q-3.3125 0.890625 -7.46875 0.890625q-4.21875 0 -8.28125 -0.890625l-1.3125 -11.453125q3.4375 0.671875 6.203125 0.671875q5.109375 0 7.546875 -3.0q2.453125 -2.984375 3.75 -7.625l-21.03125 -55.46875zm65.81714 0l13.65625 0l0 8.125q2.65625 -4.15625 7.171875 -6.765625q4.53125 -2.609375 10.0625 -2.609375q9.625 0 16.34375 7.5625q6.71875 7.546875 6.71875 21.03125q0 13.859375 -6.765625 21.546875q-6.765625 7.671875 -16.40625 7.671875q-4.578125 0 -8.3125 -1.8125q-3.71875 -1.828125 -7.828125 -6.265625l0 27.875l-14.640625 0l0 -76.359375zm14.484375 26.71875q0 9.328125 3.6875 13.78125q3.703125 4.453125 9.015625 4.453125q5.109375 0 8.484375 -4.09375q3.390625 -4.09375 3.390625 -13.40625q0 -8.703125 -3.5 -12.921875q-3.484375 -4.21875 -8.640625 -4.21875q-5.359375 0 -8.90625 4.140625q-3.53125 4.140625 -3.53125 12.265625zm83.11865 10.984375l14.578125 2.453125q-2.8125 8.015625 -8.890625 12.21875q-6.0625 4.1875 -15.171875 4.1875q-14.421875 0 -21.34375 -9.421875q-5.46875 -7.5625 -5.46875 -19.0625q0 -13.75 7.1875 -21.53125q7.1875 -7.796875 18.171875 -7.796875q12.34375 0 19.46875 8.15625q7.140625 8.15625 6.828125 24.96875l-36.65625 0q0.15625 6.515625 3.53125 10.140625q3.390625 3.609375 8.4375 3.609375q3.4375 0 5.78125 -1.875q2.34375 -1.875 3.546875 -6.046875zm0.828125 -14.78125q-0.15625 -6.359375 -3.28125 -9.65625q-3.125 -3.3125 -7.609375 -3.3125q-4.78125 0 -7.90625 3.484375q-3.125 3.5 -3.078125 9.484375l21.875 0zm21.301514 16.609375l14.6875 -2.234375q0.9375 4.265625 3.796875 6.484375q2.875 2.203125 8.015625 2.203125q5.6875 0 8.546875 -2.078125q1.921875 -1.453125 1.921875 -3.90625q0 -1.671875 -1.03125 -2.765625q-1.09375 -1.03125 -4.90625 -1.921875q-17.703125 -3.90625 -22.4375 -7.125q-6.5625 -4.484375 -6.5625 -12.453125q0 -7.1875 5.671875 -12.078125q5.6875 -4.90625 17.609375 -4.90625q11.34375 0 16.859375 3.703125q5.53125 3.703125 7.609375 10.9375l-13.796875 2.546875q-0.890625 -3.21875 -3.359375 -4.9375q-2.46875 -1.71875 -7.0625 -1.71875q-5.765625 0 -8.265625 1.609375q-1.671875 1.140625 -1.671875 2.96875q0 1.5625 1.453125 2.65625q1.984375 1.453125 13.671875 4.109375q11.6875 2.65625 16.328125 6.515625q4.578125 3.90625 4.578125 10.875q0 7.609375 -6.359375 13.078125q-6.34375 5.46875 -18.796875 5.46875q-11.296875 0 -17.890625 -4.578125q-6.578125 -4.59375 -8.609375 -12.453125z" fill-rule="nonzero"/><path fill="#595959" d="m1007.83167 1683.6721l0 -10.78125l9.375 0l0 10.78125l-9.375 0zm0 65.5625l0 -55.3125l9.375 0l0 55.3125l-9.375 0zm19.898682 -16.515625l9.265625 -1.453125q0.78125 5.578125 4.34375 8.546875q3.578125 2.96875 9.984375 2.96875q6.453125 0 9.578125 -2.625q3.125 -2.640625 3.125 -6.1875q0 -3.171875 -2.765625 -5.0q-1.921875 -1.25 -9.578125 -3.171875q-10.3125 -2.609375 -14.296875 -4.5q-3.984375 -1.90625 -6.046875 -5.265625q-2.046875 -3.359375 -2.046875 -7.421875q0 -3.6875 1.6875 -6.84375q1.703125 -3.15625 4.609375 -5.234375q2.1875 -1.609375 5.96875 -2.734375q3.78125 -1.125 8.09375 -1.125q6.515625 0 11.4375 1.875q4.921875 1.875 7.265625 5.078125q2.34375 3.203125 3.21875 8.578125l-9.15625 1.25q-0.625 -4.28125 -3.625 -6.671875q-3.0 -2.390625 -8.453125 -2.390625q-6.46875 0 -9.234375 2.140625q-2.75 2.125 -2.75 4.984375q0 1.828125 1.140625 3.28125q1.15625 1.515625 3.59375 2.5q1.40625 0.53125 8.28125 2.40625q9.953125 2.65625 13.875 4.34375q3.9375 1.6875 6.171875 4.921875q2.25 3.21875 2.25 8.015625q0 4.6875 -2.734375 8.828125q-2.734375 4.140625 -7.890625 6.40625q-5.15625 2.265625 -11.671875 2.265625q-10.78125 0 -16.4375 -4.46875q-5.640625 -4.484375 -7.203125 -13.296875z" fill-rule="nonzero"/><path fill="#595959" d="m1151.4723 1749.2346l0 -8.28125q-3.03125 4.421875 -7.953125 6.984375q-4.921875 2.546875 -10.375 2.546875q-5.578125 0 -10.015625 -2.4375q-4.421875 -2.453125 -6.40625 -6.875q-1.96875 -4.4375 -1.96875 -12.25l0 -35.0l14.640625 0l0 25.421875q0 11.65625 0.796875 14.296875q0.8125 2.625 2.9375 4.171875q2.140625 1.53125 5.421875 1.53125q3.75 0 6.71875 -2.0625q2.96875 -2.0625 4.0625 -5.109375q1.09375 -3.046875 1.09375 -14.90625l0 -23.34375l14.640625 0l0 55.3125l-13.59375 0zm79.05615 0l-14.640625 0l0 -28.21875q0 -8.96875 -0.9375 -11.59375q-0.9375 -2.625 -3.046875 -4.078125q-2.109375 -1.46875 -5.078125 -1.46875q-3.796875 0 -6.828125 2.09375q-3.015625 2.078125 -4.140625 5.515625q-1.109375 3.4375 -1.109375 12.703125l0 25.046875l-14.640625 0l0 -55.3125l13.59375 0l0 8.125q7.234375 -9.375 18.234375 -9.375q4.84375 0 8.84375 1.75q4.015625 1.75 6.0625 4.453125q2.0625 2.703125 2.875 6.140625q0.8125 3.4375 0.8125 9.84375l0 34.375zm63.056152 -38.953125l-14.421875 2.609375q-0.734375 -4.328125 -3.3125 -6.515625q-2.578125 -2.1875 -6.6875 -2.1875q-5.46875 0 -8.71875 3.78125q-3.25 3.765625 -3.25 12.625q0 9.84375 3.296875 13.90625q3.3125 4.0625 8.875 4.0625q4.171875 0 6.828125 -2.375q2.65625 -2.375 3.75 -8.15625l14.375 2.453125q-2.234375 9.890625 -8.59375 14.953125q-6.359375 5.046875 -17.03125 5.046875q-12.125 0 -19.34375 -7.65625q-7.21875 -7.65625 -7.21875 -21.1875q0 -13.703125 7.234375 -21.328125q7.25 -7.640625 19.59375 -7.640625q10.09375 0 16.0625 4.359375q5.96875 4.34375 8.5625 13.25zm11.098389 38.953125l0 -76.34375l14.640625 0l0 76.34375l-14.640625 0zm61.663696 -17.609375l14.578125 2.453125q-2.8125 8.015625 -8.890625 12.21875q-6.0625 4.1875 -15.171875 4.1875q-14.421875 0 -21.34375 -9.421875q-5.46875 -7.5625 -5.46875 -19.0625q0 -13.75 7.1875 -21.53125q7.1875 -7.796875 18.171875 -7.796875q12.34375 0 19.46875 8.15625q7.140625 8.15625 6.828125 24.96875l-36.65625 0q0.15625 6.515625 3.53125 10.140625q3.390625 3.609375 8.4375 3.609375q3.4375 0 5.78125 -1.875q2.34375 -1.875 3.546875 -6.046875zm0.828125 -14.78125q-0.15625 -6.359375 -3.28125 -9.65625q-3.125 -3.3125 -7.609375 -3.3125q-4.78125 0 -7.90625 3.484375q-3.125 3.5 -3.078125 9.484375l21.875 0zm37.395264 -6.046875l-13.28125 -2.390625q2.234375 -8.015625 7.703125 -11.875q5.46875 -3.859375 16.25 -3.859375q9.796875 0 14.578125 2.328125q4.796875 2.3125 6.75 5.890625q1.953125 3.5625 1.953125 13.09375l-0.15625 17.078125q0 7.28125 0.703125 10.75q0.703125 3.46875 2.625 7.421875l-14.46875 0q-0.578125 -1.453125 -1.40625 -4.328125q-0.375 -1.296875 -0.53125 -1.71875q-3.75 3.65625 -8.015625 5.484375q-4.265625 1.8125 -9.109375 1.8125q-8.546875 0 -13.46875 -4.625q-4.921875 -4.640625 -4.921875 -11.734375q0 -4.6875 2.234375 -8.34375q2.25 -3.671875 6.28125 -5.625q4.046875 -1.953125 11.640625 -3.421875q10.265625 -1.921875 14.21875 -3.59375l0 -1.453125q0 -4.21875 -2.09375 -6.015625q-2.078125 -1.796875 -7.859375 -1.796875q-3.890625 0 -6.078125 1.546875q-2.1875 1.53125 -3.546875 5.375zm19.578125 11.875q-2.8125 0.9375 -8.90625 2.25q-6.09375 1.296875 -7.96875 2.546875q-2.859375 2.03125 -2.859375 5.15625q0 3.0625 2.28125 5.3125q2.296875 2.234375 5.84375 2.234375q3.953125 0 7.546875 -2.609375q2.65625 -1.96875 3.484375 -4.84375q0.578125 -1.875 0.578125 -7.125l0 -2.921875zm42.81714 26.5625l-14.640625 0l0 -55.3125l13.59375 0l0 7.875q3.484375 -5.578125 6.265625 -7.34375q2.796875 -1.78125 6.328125 -1.78125q5.0 0 9.640625 2.765625l-4.53125 12.765625q-3.703125 -2.40625 -6.875 -2.40625q-3.078125 0 -5.21875 1.703125q-2.125 1.6875 -3.34375 6.125q-1.21875 4.421875 -1.21875 18.53125l0 17.078125zm21.605347 0l0 -14.640625l14.640625 0l0 14.640625l-14.640625 0z" fill-rule="nonzero"/><path fill="#000000" fill-opacity="0.0" d="m9.661028 14.490813l1703.6536 0l0 325.29135l-1703.6536 0z" fill-rule="evenodd"/><path fill="#595959" d="m253.24586 151.53648l0 -76.34375l28.79689 0q7.59375 0 11.609375 0.71875q5.625 0.9375 9.421875 3.578125q3.8125 2.625 6.125 7.375q2.3125 4.734375 2.3125 10.40625q0 9.734375 -6.203125 16.484375q-6.1875 6.75 -22.390625 6.75l-19.578125 0l0 31.03125l-10.093765 0zm10.093765 -40.046875l19.734375 0q9.796875 0 13.90625 -3.640625q4.125 -3.65625 4.125 -10.265625q0 -4.796875 -2.421875 -8.203125q-2.421875 -3.40625 -6.390625 -4.5q-2.546875 -0.6875 -9.421875 -0.6875l-19.53125 0l0 27.296875zm59.732635 40.046875l0 -55.3125l8.4375 0l0 8.390625q3.234375 -5.890625 5.96875 -7.765625q2.734375 -1.875 6.015625 -1.875q4.734375 0 9.625 3.03125l-3.21875 8.6875q-3.4375 -2.03125 -6.875 -2.03125q-3.078125 0 -5.53125 1.859375q-2.4375 1.84375 -3.484375 5.125q-1.5625 5.0 -1.5625 10.9375l0 28.953125l-9.375 0zm35.673615 -65.5625l0 -10.78125l9.375 0l0 10.78125l-9.375 0zm0 65.5625l0 -55.3125l9.375 0l0 55.3125l-9.375 0zm20.164368 -27.65625q0 -15.359375 8.53125 -22.75q7.140625 -6.15625 17.390625 -6.15625q11.40625 0 18.640625 7.484375q7.25 7.46875 7.25 20.640625q0 10.671875 -3.203125 16.796875q-3.203125 6.125 -9.328125 9.515625q-6.109375 3.375 -13.359375 3.375q-11.609375 0 -18.765625 -7.4375q-7.15625 -7.453125 -7.15625 -21.46875zm9.625 0q0 10.625 4.640625 15.921875q4.640625 5.28125 11.65625 5.28125q6.984375 0 11.609375 -5.3125q4.640625 -5.3125 4.640625 -16.203125q0 -10.25 -4.65625 -15.53125q-4.65625 -5.296875 -11.59375 -5.296875q-7.015625 0 -11.65625 5.265625q-4.640625 5.25 -4.640625 15.875zm53.06711 27.65625l0 -55.3125l8.4375 0l0 8.390625q3.234375 -5.890625 5.96875 -7.765625q2.734375 -1.875 6.015625 -1.875q4.734375 0 9.625 3.03125l-3.21875 8.6875q-3.4375 -2.03125 -6.875 -2.03125q-3.078125 0 -5.53125 1.859375q-2.4375 1.84375 -3.484375 5.125q-1.5625 5.0 -1.5625 10.9375l0 28.953125l-9.375 0zm65.14987 0l0 -55.3125l8.4374695 0l0 8.390625q3.234375 -5.890625 5.96875 -7.765625q2.734375 -1.875 6.015625 -1.875q4.734375 0 9.625 3.03125l-3.21875 8.6875q-3.4375 -2.03125 -6.875 -2.03125q-3.078125 0 -5.53125 1.859375q-2.4375 1.84375 -3.484375 5.125q-1.5625 5.0 -1.5625 10.9375l0 28.953125l-9.3749695 0zm73.486115 -17.8125l9.6875 1.203125q-2.296875 8.484375 -8.5 13.171875q-6.1875 4.6875 -15.828125 4.6875q-12.125 0 -19.234375 -7.46875q-7.109375 -7.484375 -7.109375 -20.96875q0 -13.953125 7.1875 -21.65625q7.1875 -7.71875 18.640625 -7.71875q11.09375 0 18.125 7.5625q7.03125 7.546875 7.03125 21.25q0 0.828125 -0.046875 2.484375l-41.25 0q0.515625 9.125 5.15625 13.96875q4.640625 4.84375 11.5625 4.84375q5.15625 0 8.796875 -2.703125q3.640625 -2.71875 5.78125 -8.65625zm-30.78125 -15.15625l30.890625 0q-0.625 -6.96875 -3.546875 -10.46875q-4.484375 -5.40625 -11.609375 -5.40625q-6.453125 0 -10.859375 4.328125q-4.40625 4.3125 -4.875 11.546875zm48.489014 16.453125l9.265625 -1.453125q0.78125 5.578125 4.34375 8.546875q3.578125 2.96875 9.984375 2.96875q6.453125 0 9.578125 -2.625q3.125 -2.640625 3.125 -6.1875q0 -3.171875 -2.765625 -5.0q-1.921875 -1.25 -9.578125 -3.171875q-10.3125 -2.609375 -14.296875 -4.5q-3.984375 -1.90625 -6.046875 -5.265625q-2.046875 -3.359375 -2.046875 -7.421875q0 -3.6875 1.6875 -6.84375q1.703125 -3.15625 4.609375 -5.234375q2.1875 -1.609375 5.96875 -2.734375q3.78125 -1.125 8.09375 -1.125q6.515625 0 11.4375 1.875q4.921875 1.875 7.265625 5.078125q2.34375 3.203125 3.21875 8.578125l-9.15625 1.25q-0.625 -4.28125 -3.625 -6.671875q-3.0 -2.390625 -8.453125 -2.390625q-6.46875 0 -9.234375 2.140625q-2.75 2.125 -2.75 4.984375q0 1.828125 1.140625 3.28125q1.15625 1.515625 3.59375 2.5q1.40625 0.53125 8.28125 2.40625q9.953125 2.65625 13.875 4.34375q3.9375 1.6875 6.171875 4.921875q2.25 3.21875 2.25 8.015625q0 4.6875 -2.734375 8.828125q-2.734375 4.140625 -7.890625 6.40625q-5.15625 2.265625 -11.671875 2.265625q-10.78125 0 -16.4375 -4.46875q-5.640625 -4.484375 -7.203125 -13.296875zm94.9375 -1.296875l9.6875 1.203125q-2.296875 8.484375 -8.5 13.171875q-6.1875 4.6875 -15.828125 4.6875q-12.125 0 -19.234375 -7.46875q-7.109375 -7.484375 -7.109375 -20.96875q0 -13.953125 7.1875 -21.65625q7.1875 -7.71875 18.640625 -7.71875q11.09375 0 18.125 7.5625q7.03125 7.546875 7.03125 21.25q0 0.828125 -0.046875 2.484375l-41.25 0q0.515625 9.125 5.15625 13.96875q4.640625 4.84375 11.5625 4.84375q5.15625 0 8.796875 -2.703125q3.640625 -2.71875 5.78125 -8.65625zm-30.78125 -15.15625l30.890625 0q-0.625 -6.96875 -3.546875 -10.46875q-4.484375 -5.40625 -11.609375 -5.40625q-6.453125 0 -10.859375 4.328125q-4.40625 4.3125 -4.875 11.546875zm88.33276 26.140625q-5.21875 4.4375 -10.03125 6.265625q-4.8125 1.8125 -10.328125 1.8125q-9.125 0 -14.015625 -4.453125q-4.890625 -4.453125 -4.890625 -11.375q0 -4.0625 1.84375 -7.421875q1.84375 -3.359375 4.84375 -5.390625q3.0 -2.03125 6.75 -3.078125q2.75 -0.71875 8.328125 -1.40625q11.34375 -1.34375 16.71875 -3.21875q0.046875 -1.9375 0.046875 -2.453125q0 -5.734375 -2.65625 -8.078125q-3.59375 -3.171875 -10.671875 -3.171875q-6.609375 0 -9.765625 2.328125q-3.15625 2.3125 -4.65625 8.1875l-9.171875 -1.25q1.25 -5.875 4.109375 -9.5q2.875 -3.625 8.28125 -5.578125q5.421875 -1.953125 12.546875 -1.953125q7.09375 0 11.515625 1.671875q4.421875 1.671875 6.5 4.203125q2.09375 2.515625 2.921875 6.375q0.46875 2.390625 0.46875 8.640625l0 12.5q0 13.0625 0.59375 16.53125q0.609375 3.46875 2.375 6.640625l-9.78125 0q-1.46875 -2.921875 -1.875 -6.828125zm-0.78125 -20.921875q-5.109375 2.078125 -15.3125 3.53125q-5.78125 0.828125 -8.1875 1.875q-2.390625 1.046875 -3.6875 3.046875q-1.296875 2.0 -1.296875 4.453125q0 3.75 2.828125 6.25q2.84375 2.5 8.3125 2.5q5.40625 0 9.625 -2.359375q4.21875 -2.375 6.203125 -6.5q1.515625 -3.171875 1.515625 -9.375l0 -3.421875zm23.895264 27.75l0 -55.3125l8.4375 0l0 8.390625q3.234375 -5.890625 5.96875 -7.765625q2.734375 -1.875 6.015625 -1.875q4.734375 0 9.625 3.03125l-3.21875 8.6875q-3.4375 -2.03125 -6.875 -2.03125q-3.078125 0 -5.53125 1.859375q-2.4375 1.84375 -3.484375 5.125q-1.5625 5.0 -1.5625 10.9375l0 28.953125l-9.375 0zm71.72052 -20.265625l9.21875 1.203125q-1.515625 9.53125 -7.75 14.921875q-6.21875 5.390625 -15.28125 5.390625q-11.34375 0 -18.25 -7.421875q-6.890625 -7.421875 -6.890625 -21.265625q0 -8.96875 2.96875 -15.6875q2.96875 -6.71875 9.03125 -10.078125q6.0625 -3.359375 13.203125 -3.359375q9.0 0 14.734375 4.5625q5.734375 4.5625 7.34375 12.9375l-9.109375 1.40625q-1.3125 -5.5625 -4.625 -8.375q-3.296875 -2.8125 -7.984375 -2.8125q-7.078125 0 -11.515625 5.078125q-4.421875 5.078125 -4.421875 16.0625q0 11.140625 4.265625 16.203125q4.28125 5.046875 11.15625 5.046875q5.515625 0 9.203125 -3.390625q3.703125 -3.390625 4.703125 -10.421875zm17.234375 20.265625l0 -76.34375l9.375 0l0 27.390625q6.5625 -7.609375 16.5625 -7.609375q6.140625 0 10.671875 2.421875q4.53125 2.421875 6.484375 6.703125q1.953125 4.265625 1.953125 12.390625l0 35.046875l-9.375 0l0 -35.046875q0 -7.03125 -3.046875 -10.234375q-3.046875 -3.203125 -8.625 -3.203125q-4.15625 0 -7.828125 2.171875q-3.671875 2.15625 -5.234375 5.859375q-1.5625 3.6875 -1.5625 10.203125l0 30.25l-9.375 0zm85.46527 -27.65625q0 -15.359375 8.53125 -22.75q7.140625 -6.15625 17.390625 -6.15625q11.40625 0 18.640625 7.484375q7.25 7.46875 7.25 20.640625q0 10.671875 -3.203125 16.796875q-3.203125 6.125 -9.328125 9.515625q-6.109375 3.375 -13.359375 3.375q-11.609375 0 -18.765625 -7.4375q-7.15625 -7.453125 -7.15625 -21.46875zm9.625 0q0 10.625 4.640625 15.921875q4.640625 5.28125 11.65625 5.28125q6.984375 0 11.609375 -5.3125q4.640625 -5.3125 4.640625 -16.203125q0 -10.25 -4.65625 -15.53125q-4.65625 -5.296875 -11.59375 -5.296875q-7.015625 0 -11.65625 5.265625q-4.640625 5.25 -4.640625 15.875zm53.176514 27.65625l0 -55.3125l8.4375 0l0 7.875q6.093811 -9.125 17.593811 -9.125q5.0 0 9.1875 1.796875q4.203125 1.796875 6.28125 4.71875q2.09375 2.921875 2.921875 6.921875q0.515625 2.609375 0.515625 9.125l0 34.0l-9.375 0l0 -33.640625q0 -5.734375 -1.09375 -8.5625q-1.09375 -2.84375 -3.875 -4.53125q-2.78125 -1.703125 -6.53125 -1.703125q-5.984375 0 -10.34375 3.8125q-4.343811 3.796875 -4.343811 14.421875l0 30.203125l-9.375 0zm91.18402 0l0 -48.015625l-8.28125 0l0 -7.296875l8.28125 0l0 -5.875q0 -5.578125 1.0 -8.28125q1.34375 -3.65625 4.75 -5.921875q3.421875 -2.265625 9.5625 -2.265625q3.953125 0 8.75 0.9375l-1.40625 8.1875q-2.921875 -0.53125 -5.515625 -0.53125q-4.265625 0 -6.046875 1.828125q-1.765625 1.828125 -1.765625 6.828125l0 5.09375l10.78125 0l0 7.296875l-10.78125 0l0 48.015625l-9.328125 0zm63.49182 -6.828125q-5.21875 4.4375 -10.03125 6.265625q-4.8125 1.8125 -10.328125 1.8125q-9.125 0 -14.015625 -4.453125q-4.890625 -4.453125 -4.890625 -11.375q0 -4.0625 1.84375 -7.421875q1.84375 -3.359375 4.84375 -5.390625q3.0 -2.03125 6.75 -3.078125q2.75 -0.71875 8.328125 -1.40625q11.34375 -1.34375 16.71875 -3.21875q0.046875 -1.9375 0.046875 -2.453125q0 -5.734375 -2.65625 -8.078125q-3.59375 -3.171875 -10.671875 -3.171875q-6.609375 0 -9.765625 2.328125q-3.15625 2.3125 -4.65625 8.1875l-9.171875 -1.25q1.25 -5.875 4.109375 -9.5q2.875 -3.625 8.28125 -5.578125q5.421875 -1.953125 12.546875 -1.953125q7.09375 0 11.515625 1.671875q4.421875 1.671875 6.5 4.203125q2.09375 2.515625 2.921875 6.375q0.46875 2.390625 0.46875 8.640625l0 12.5q0 13.0625 0.59375 16.53125q0.609375 3.46875 2.375 6.640625l-9.78125 0q-1.46875 -2.921875 -1.875 -6.828125zm-0.78125 -20.921875q-5.109375 2.078125 -15.3125 3.53125q-5.78125 0.828125 -8.1875 1.875q-2.390625 1.046875 -3.6875 3.046875q-1.296875 2.0 -1.296875 4.453125q0 3.75 2.828125 6.25q2.84375 2.5 8.3125 2.5q5.40625 0 9.625 -2.359375q4.21875 -2.375 6.203125 -6.5q1.515625 -3.171875 1.515625 -9.375l0 -3.421875zm24.051514 -37.8125l0 -10.78125l9.375 0l0 10.78125l-9.375 0zm0 65.5625l0 -55.3125l9.375 0l0 55.3125l-9.375 0zm23.539429 0l0 -55.3125l8.4375 0l0 8.390625q3.234375 -5.890625 5.96875 -7.765625q2.734375 -1.875 6.015625 -1.875q4.734375 0 9.625 3.03125l-3.21875 8.6875q-3.4375 -2.03125 -6.875 -2.03125q-3.078125 0 -5.53125 1.859375q-2.4375 1.84375 -3.484375 5.125q-1.5625 5.0 -1.5625 10.9375l0 28.953125l-9.375 0zm66.35303 0l0 -76.34375l10.359375 0l40.109375 59.9375l0 -59.9375l9.6875 0l0 76.34375l-10.375 0l-40.09375 -60.0l0 60.0l-9.6875 0zm76.71118 0l0 -76.34375l10.109375 0l0 67.328125l37.59375 0l0 9.015625l-47.703125 0zm59.739014 0l0 -76.34375l28.796875 0q7.59375 0 11.609375 0.71875q5.625 0.9375 9.421875 3.578125q3.8125 2.625 6.125 7.375q2.3125 4.734375 2.3125 10.40625q0 9.734375 -6.203125 16.484375q-6.1875 6.75 -22.390625 6.75l-19.578125 0l0 31.03125l-10.09375 0zm10.09375 -40.046875l19.734375 0q9.796875 0 13.90625 -3.640625q4.125 -3.65625 4.125 -10.265625q0 -4.796875 -2.421875 -8.203125q-2.421875 -3.40625 -6.390625 -4.5q-2.546875 -0.6875 -9.421875 -0.6875l-19.53125 0l0 27.296875z" fill-rule="nonzero"/><path fill="#73b092" d="m1042.3296 177.13647l551.3524 0l0 128.0l-551.3524 0l0 -128.0z" fill-rule="nonzero"/><path fill="#595959" d="m168.1918 279.53647l0 -48.015625l-8.28125 0l0 -7.296875l8.28125 0l0 -5.875q0 -5.578125 1.0 -8.28125q1.34375 -3.65625 4.75 -5.921875q3.421875 -2.265625 9.5625 -2.265625q3.953125 0 8.75 0.9375l-1.40625 8.1875q-2.921875 -0.53125 -5.515625 -0.53125q-4.265625 0 -6.046875 1.828125q-1.765625 1.828125 -1.765625 6.828125l0 5.09375l10.78125 0l0 7.296875l-10.78125 0l0 48.015625l-9.328125 0zm23.913773 -27.65625q0 -15.359375 8.53125 -22.75q7.140625 -6.15625 17.390625 -6.15625q11.40625 0 18.640625 7.484375q7.25 7.46875 7.25 20.640625q0 10.671875 -3.203125 16.796875q-3.203125 6.125 -9.328125 9.515625q-6.109375 3.375 -13.359375 3.375q-11.609375 0 -18.765625 -7.4375q-7.15625 -7.453125 -7.15625 -21.46875zm9.625 0q0 10.625 4.640625 15.921875q4.640625 5.28125 11.65625 5.28125q6.984375 0 11.609375 -5.3125q4.640625 -5.3125 4.640625 -16.203125q0 -10.25 -4.65625 -15.53125q-4.65625 -5.296875 -11.59375 -5.296875q-7.015625 0 -11.65625 5.265625q-4.640625 5.25 -4.640625 15.875zm89.27025 7.390625l9.21875 1.203125q-1.515625 9.53125 -7.75 14.921875q-6.21875 5.390625 -15.28125 5.390625q-11.34375 0 -18.25 -7.421875q-6.890625 -7.421875 -6.890625 -21.265625q0 -8.96875 2.96875 -15.6875q2.96875 -6.71875 9.03125 -10.078125q6.0625 -3.359375 13.203125 -3.359375q9.0 0 14.734375 4.5625q5.734375 4.5625 7.34375 12.9375l-9.109375 1.40625q-1.3125 -5.5625 -4.625 -8.375q-3.296875 -2.8125 -7.984375 -2.8125q-7.078125 0 -11.515625 5.078125q-4.421875 5.078125 -4.421875 16.0625q0 11.140625 4.265625 16.203125q4.28125 5.046875 11.15625 5.046875q5.515625 0 9.203125 -3.390625q3.703125 -3.390625 4.703125 -10.421875zm53.484375 20.265625l0 -8.125q-6.46875 9.375 -17.546875 9.375q-4.90625 0 -9.15625 -1.875q-4.234375 -1.875 -6.296875 -4.703125q-2.046875 -2.84375 -2.890625 -6.96875q-0.5625 -2.75 -0.5625 -8.75l0 -34.265625l9.375 0l0 30.671875q0 7.34375 0.5625 9.90625q0.890625 3.6875 3.75 5.796875q2.875 2.109375 7.078125 2.109375q4.21875 0 7.921875 -2.15625q3.703125 -2.15625 5.234375 -5.875q1.53125 -3.734375 1.53125 -10.8125l0 -29.640625l9.375 0l0 55.3125l-8.375 0zm19.317139 -16.515625l9.265625 -1.453125q0.78125 5.578125 4.34375 8.546875q3.578125 2.96875 9.984375 2.96875q6.453125 0 9.578125 -2.625q3.125 -2.640625 3.125 -6.1875q0 -3.171875 -2.765625 -5.0q-1.921875 -1.25 -9.578125 -3.171875q-10.3125 -2.609375 -14.296875 -4.5q-3.984375 -1.90625 -6.046875 -5.265625q-2.046875 -3.359375 -2.046875 -7.421875q0 -3.6875 1.6875 -6.84375q1.703125 -3.15625 4.609375 -5.234375q2.1875 -1.609375 5.96875 -2.734375q3.78125 -1.125 8.09375 -1.125q6.515625 0 11.4375 1.875q4.921875 1.875 7.265625 5.078125q2.34375 3.203125 3.21875 8.578125l-9.15625 1.25q-0.625 -4.28125 -3.625 -6.671875q-3.0 -2.390625 -8.453125 -2.390625q-6.46875 0 -9.234375 2.140625q-2.75 2.125 -2.75 4.984375q0 1.828125 1.140625 3.28125q1.15625 1.515625 3.59375 2.5q1.40625 0.53125 8.28125 2.40625q9.953125 2.65625 13.875 4.34375q3.9375 1.6875 6.171875 4.921875q2.25 3.21875 2.25 8.015625q0 4.6875 -2.734375 8.828125q-2.734375 4.140625 -7.890625 6.40625q-5.15625 2.265625 -11.671875 2.265625q-10.78125 0 -16.4375 -4.46875q-5.640625 -4.484375 -7.203125 -13.296875zm94.9375 -1.296875l9.6875 1.203125q-2.296875 8.484375 -8.5 13.171875q-6.1875 4.6875 -15.828125 4.6875q-12.125 0 -19.234375 -7.46875q-7.109375 -7.484375 -7.109375 -20.96875q0 -13.953125 7.1875 -21.65625q7.1875 -7.71875 18.640625 -7.71875q11.09375 0 18.125 7.5625q7.03125 7.546875 7.03125 21.25q0 0.828125 -0.046875 2.484375l-41.25 0q0.515625 9.125 5.15625 13.96875q4.640625 4.84375 11.5625 4.84375q5.15625 0 8.796875 -2.703125q3.640625 -2.71875 5.78125 -8.65625zm-30.78125 -15.15625l30.890625 0q-0.625 -6.96875 -3.546875 -10.46875q-4.484375 -5.40625 -11.609375 -5.40625q-6.453125 0 -10.859375 4.328125q-4.40625 4.3125 -4.875 11.546875zm48.489014 16.453125l9.265625 -1.453125q0.78125 5.578125 4.34375 8.546875q3.578125 2.96875 9.984375 2.96875q6.453125 0 9.578125 -2.625q3.1249695 -2.640625 3.1249695 -6.1875q0 -3.171875 -2.7655945 -5.0q-1.921875 -1.25 -9.578125 -3.171875q-10.3125 -2.609375 -14.296875 -4.5q-3.984375 -1.90625 -6.046875 -5.265625q-2.046875 -3.359375 -2.046875 -7.421875q0 -3.6875 1.6875 -6.84375q1.703125 -3.15625 4.609375 -5.234375q2.1875 -1.609375 5.96875 -2.734375q3.78125 -1.125 8.09375 -1.125q6.515625 0 11.4375 1.875q4.9218445 1.875 7.2655945 5.078125q2.34375 3.203125 3.21875 8.578125l-9.1562195 1.25q-0.625 -4.28125 -3.625 -6.671875q-3.0 -2.390625 -8.453125 -2.390625q-6.46875 0 -9.234375 2.140625q-2.75 2.125 -2.75 4.984375q0 1.828125 1.140625 3.28125q1.15625 1.515625 3.59375 2.5q1.40625 0.53125 8.28125 2.40625q9.953125 2.65625 13.8749695 4.34375q3.9375 1.6875 6.171875 4.921875q2.25 3.21875 2.25 8.015625q0 4.6875 -2.734375 8.828125q-2.734375 4.140625 -7.8905945 6.40625q-5.15625 2.265625 -11.671875 2.265625q-10.78125 0 -16.4375 -4.46875q-5.640625 -4.484375 -7.203125 -13.296875zm83.22623 -11.140625q0 -15.359375 8.53125 -22.75q7.140625 -6.15625 17.390625 -6.15625q11.40625 0 18.640625 7.484375q7.25 7.46875 7.25 20.640625q0 10.671875 -3.203125 16.796875q-3.203125 6.125 -9.328125 9.515625q-6.109375 3.375 -13.359375 3.375q-11.609375 0 -18.765625 -7.4375q-7.15625 -7.453125 -7.15625 -21.46875zm9.625 0q0 10.625 4.640625 15.921875q4.640625 5.28125 11.65625 5.28125q6.984375 0 11.609375 -5.3125q4.640625 -5.3125 4.640625 -16.203125q0 -10.25 -4.65625 -15.53125q-4.65625 -5.296875 -11.59375 -5.296875q-7.015625 0 -11.65625 5.265625q-4.640625 5.25 -4.640625 15.875zm53.176514 27.65625l0 -55.3125l8.4375 0l0 7.875q6.09375 -9.125 17.59375 -9.125q5.0 0 9.1875 1.796875q4.203125 1.796875 6.28125 4.71875q2.09375 2.921875 2.921875 6.921875q0.515625 2.609375 0.515625 9.125l0 34.0l-9.375 0l0 -33.640625q0 -5.734375 -1.09375 -8.5625q-1.09375 -2.84375 -3.875 -4.53125q-2.78125 -1.703125 -6.53125 -1.703125q-5.984375 0 -10.34375 3.8125q-4.34375 3.796875 -4.34375 14.421875l0 30.203125l-9.375 0zm88.99652 0l0 -76.34375l9.375 0l0 43.53125l22.1875 -22.5l12.140625 0l-21.15625 20.53125l23.28125 34.78125l-11.5625 0l-18.265625 -28.28125l-6.625 6.359375l0 21.921875l-9.375 0zm53.28125 0l0 -55.3125l8.4375 0l0 7.875q6.09375 -9.125 17.59375 -9.125q5.0 0 9.1875 1.796875q4.203125 1.796875 6.28125 4.71875q2.09375 2.921875 2.921875 6.921875q0.515625 2.609375 0.515625 9.125l0 34.0l-9.375 0l0 -33.640625q0 -5.734375 -1.09375 -8.5625q-1.09375 -2.84375 -3.875 -4.53125q-2.78125 -1.703125 -6.53125 -1.703125q-5.984375 0 -10.34375 3.8125q-4.34375 3.796875 -4.34375 14.421875l0 30.203125l-9.375 0zm55.832764 -27.65625q0 -15.359375 8.53125 -22.75q7.140625 -6.15625 17.390625 -6.15625q11.40625 0 18.640625 7.484375q7.25 7.46875 7.25 20.640625q0 10.671875 -3.203125 16.796875q-3.203125 6.125 -9.328125 9.515625q-6.109375 3.375 -13.359375 3.375q-11.609375 0 -18.765625 -7.4375q-7.15625 -7.453125 -7.15625 -21.46875zm9.625 0q0 10.625 4.640625 15.921875q4.640625 5.28125 11.65625 5.28125q6.984375 0 11.609375 -5.3125q4.640625 -5.3125 4.640625 -16.203125q0 -10.25 -4.65625 -15.53125q-4.65625 -5.296875 -11.59375 -5.296875q-7.015625 0 -11.65625 5.265625q-4.640625 5.25 -4.640625 15.875zm63.37964 27.65625l-16.921875 -55.3125l9.6875 0l8.796875 31.921875l3.28125 11.875q0.21875 -0.875 2.875 -11.40625l8.796875 -32.390625l9.625 0l8.28125 32.078125l2.765625 10.578125l3.171875 -10.671875l9.484375 -31.984375l9.109375 0l-17.28125 55.3125l-9.75 0l-8.796875 -33.125l-2.140625 -9.421875l-11.1875 42.546875l-9.796875 0zm66.82062 0l0 -55.3125l8.4375 0l0 7.875q6.09375 -9.125 17.59375 -9.125q5.0 0 9.1875 1.796875q4.203125 1.796875 6.28125 4.71875q2.09375 2.921875 2.921875 6.921875q0.515625 2.609375 0.515625 9.125l0 34.0l-9.375 0l0 -33.640625q0 -5.734375 -1.09375 -8.5625q-1.09375 -2.84375 -3.875 -4.53125q-2.78125 -1.703125 -6.53125 -1.703125q-5.984375 0 -10.34375 3.8125q-4.34375 3.796875 -4.34375 14.421875l0 30.203125l-9.375 0z" fill-rule="nonzero"/><path fill="#010000" fill-opacity="0.0" d="m1042.3295 182.9834l551.3524 0l0 122.64426l-551.3524 0l0 -122.64426z" fill-rule="nonzero"/><path fill="#ffffff" d="m1045.6107 263.02084l9.265625 -1.453125q0.78125 5.578125 4.34375 8.546875q3.578125 2.96875 9.984375 2.96875q6.453125 0 9.578125 -2.625q3.125 -2.640625 3.125 -6.1875q0 -3.171875 -2.765625 -5.0q-1.921875 -1.25 -9.578125 -3.171875q-10.3125 -2.609375 -14.296875 -4.5q-3.984375 -1.90625 -6.046875 -5.265625q-2.046875 -3.359375 -2.046875 -7.421875q0 -3.6875 1.6875 -6.84375q1.703125 -3.15625 4.609375 -5.234375q2.1875 -1.609375 5.96875 -2.734375q3.78125 -1.125 8.09375 -1.125q6.515625 0 11.4375 1.875q4.921875 1.875 7.265625 5.078125q2.34375 3.203125 3.21875 8.578125l-9.15625 1.25q-0.625 -4.28125 -3.625 -6.671875q-3.0 -2.390625 -8.453125 -2.390625q-6.46875 0 -9.234375 2.140625q-2.75 2.125 -2.75 4.984375q0 1.828125 1.140625 3.28125q1.15625 1.515625 3.59375 2.5q1.40625 0.53125 8.28125 2.40625q9.953125 2.65625 13.875 4.34375q3.9375 1.6875 6.171875 4.921875q2.25 3.21875 2.25 8.015625q0 4.6875 -2.734375 8.828125q-2.734375 4.140625 -7.890625 6.40625q-5.15625 2.265625 -11.671875 2.265625q-10.78125 0 -16.4375 -4.46875q-5.640625 -4.484375 -7.203125 -13.296875zm77.546875 8.125l1.34375 8.28125q-3.953125 0.84375 -7.078125 0.84375q-5.09375 0 -7.90625 -1.609375q-2.8125 -1.625 -3.96875 -4.25q-1.140625 -2.640625 -1.140625 -11.078125l0 -31.8125l-6.875 0l0 -7.296875l6.875 0l0 -13.6875l9.328125 -5.625l0 19.3125l9.421875 0l0 7.296875l-9.421875 0l0 32.34375q0 4.0 0.484375 5.15625q0.5 1.140625 1.609375 1.828125q1.125 0.671875 3.21875 0.671875q1.5625 0 4.109375 -0.375zm47.023193 -9.421875l9.6875 1.203125q-2.296875 8.484375 -8.5 13.171875q-6.1875 4.6875 -15.828125 4.6875q-12.125 0 -19.234375 -7.46875q-7.109375 -7.484375 -7.109375 -20.96875q0 -13.953125 7.1875 -21.65625q7.1875 -7.71875 18.640625 -7.71875q11.09375 0 18.125 7.5625q7.03125 7.546875 7.03125 21.25q0 0.828125 -0.046875 2.484375l-41.25 0q0.515625 9.125 5.15625 13.96875q4.640625 4.84375 11.5625 4.84375q5.15625 0 8.796875 -2.703125q3.640625 -2.71875 5.78125 -8.65625zm-30.78125 -15.15625l30.890625 0q-0.625 -6.96875 -3.546875 -10.46875q-4.484375 -5.40625 -11.609375 -5.40625q-6.453125 0 -10.859375 4.328125q-4.40625 4.3125 -4.875 11.546875zm52.12964 32.96875l0 -55.3125l8.4375 0l0 8.390625q3.234375 -5.890625 5.96875 -7.765625q2.734375 -1.875 6.015625 -1.875q4.734375 0 9.625 3.03125l-3.21875 8.6875q-3.4375 -2.03125 -6.875 -2.03125q-3.078125 0 -5.53125 1.859375q-2.4375 1.84375 -3.484375 5.125q-1.5625 5.0 -1.5625 10.9375l0 28.953125l-9.375 0zm73.486084 -17.8125l9.6875 1.203125q-2.296875 8.484375 -8.5 13.171875q-6.1875 4.6875 -15.828125 4.6875q-12.125 0 -19.234375 -7.46875q-7.109375 -7.484375 -7.109375 -20.96875q0 -13.953125 7.1875 -21.65625q7.1875 -7.71875 18.640625 -7.71875q11.09375 0 18.125 7.5625q7.03125 7.546875 7.03125 21.25q0 0.828125 -0.046875 2.484375l-41.25 0q0.515625 9.125 5.15625 13.96875q4.640625 4.84375 11.5625 4.84375q5.15625 0 8.796875 -2.703125q3.640625 -2.71875 5.78125 -8.65625zm-30.78125 -15.15625l30.890625 0q-0.625 -6.96875 -3.546875 -10.46875q-4.484375 -5.40625 -11.609375 -5.40625q-6.453125 0 -10.859375 4.328125q-4.40625 4.3125 -4.875 11.546875zm48.75464 5.3125q0 -15.359375 8.53125 -22.75q7.140625 -6.15625 17.390625 -6.15625q11.40625 0 18.640625 7.484375q7.25 7.46875 7.25 20.640625q0 10.671875 -3.203125 16.796875q-3.203125 6.125 -9.328125 9.515625q-6.109375 3.375 -13.359375 3.375q-11.609375 0 -18.765625 -7.4375q-7.15625 -7.453125 -7.15625 -21.46875zm9.625 0q0 10.625 4.640625 15.921875q4.640625 5.28125 11.65625 5.28125q6.984375 0 11.609375 -5.3125q4.640625 -5.3125 4.640625 -16.203125q0 -10.25 -4.65625 -15.53125q-4.65625 -5.296875 -11.59375 -5.296875q-7.015625 0 -11.65625 5.265625q-4.640625 5.25 -4.640625 15.875zm73.64526 19.265625l1.34375 8.28125q-3.953125 0.84375 -7.078125 0.84375q-5.09375 0 -7.90625 -1.609375q-2.8125 -1.625 -3.96875 -4.25q-1.140625 -2.640625 -1.140625 -11.078125l0 -31.8125l-6.875 0l0 -7.296875l6.875 0l0 -13.6875l9.328125 -5.625l0 19.3125l9.421875 0l0 7.296875l-9.421875 0l0 32.34375q0 4.0 0.484375 5.15625q0.5 1.140625 1.609375 1.828125q1.125 0.671875 3.21875 0.671875q1.5625 0 4.109375 -0.375zm8.741821 29.6875l-1.03125 -8.796875q3.0625 0.828125 5.359375 0.828125q3.125 0 5.0 -1.046875q1.875 -1.03125 3.078125 -2.90625q0.875 -1.40625 2.859375 -6.984375q0.265625 -0.78125 0.828125 -2.28125l-20.984375 -55.421875l10.109375 0l11.5 32.03125q2.25 6.09375 4.015625 12.8125q1.609375 -6.453125 3.84375 -12.609375l11.828125 -32.234375l9.375 0l-21.046875 56.25q-3.375 9.109375 -5.25 12.546875q-2.5 4.640625 -5.734375 6.796875q-3.21875 2.171875 -7.703125 2.171875q-2.703125 0 -6.046875 -1.15625zm53.75 -0.09375l0 -76.515625l8.546875 0l0 7.1875q3.015625 -4.21875 6.8125 -6.328125q3.8125 -2.109375 9.21875 -2.109375q7.078125 0 12.5 3.65625q5.421875 3.640625 8.171875 10.28125q2.765625 6.640625 2.765625 14.5625q0 8.484375 -3.046875 15.28125q-3.046875 6.796875 -8.859375 10.421875q-5.796875 3.609375 -12.203125 3.609375q-4.6875 0 -8.421875 -1.96875q-3.71875 -1.984375 -6.109375 -5.015625l0 26.9375l-9.375 0zm8.484375 -48.546875q0 10.671875 4.328125 15.78125q4.328125 5.109375 10.46875 5.109375q6.25 0 10.703125 -5.28125q4.453125 -5.296875 4.453125 -16.390625q0 -10.5625 -4.359375 -15.828125q-4.34375 -5.265625 -10.390625 -5.265625q-5.984375 0 -10.59375 5.609375q-4.609375 5.59375 -4.609375 16.265625zm88.69214 9.53125l9.6875 1.203125q-2.296875 8.484375 -8.5 13.171875q-6.1875 4.6875 -15.828125 4.6875q-12.125 0 -19.234375 -7.46875q-7.109375 -7.484375 -7.109375 -20.96875q0 -13.953125 7.1875 -21.65625q7.1875 -7.71875 18.640625 -7.71875q11.09375 0 18.125 7.5625q7.03125 7.546875 7.03125 21.25q0 0.828125 -0.046875 2.484375l-41.25 0q0.515625 9.125 5.15625 13.96875q4.640625 4.84375 11.5625 4.84375q5.15625 0 8.796875 -2.703125q3.640625 -2.71875 5.78125 -8.65625zm-30.78125 -15.15625l30.890625 0q-0.625 -6.96875 -3.546875 -10.46875q-4.484375 -5.40625 -11.609375 -5.40625q-6.453125 0 -10.859375 4.328125q-4.40625 4.3125 -4.875 11.546875zm48.489014 16.453125l9.265625 -1.453125q0.78125 5.578125 4.34375 8.546875q3.578125 2.96875 9.984375 2.96875q6.453125 0 9.578125 -2.625q3.125 -2.640625 3.125 -6.1875q0 -3.171875 -2.765625 -5.0q-1.921875 -1.25 -9.578125 -3.171875q-10.3125 -2.609375 -14.296875 -4.5q-3.984375 -1.90625 -6.046875 -5.265625q-2.046875 -3.359375 -2.046875 -7.421875q0 -3.6875 1.6875 -6.84375q1.703125 -3.15625 4.609375 -5.234375q2.1875 -1.609375 5.96875 -2.734375q3.78125 -1.125 8.09375 -1.125q6.515625 0 11.4375 1.875q4.921875 1.875 7.265625 5.078125q2.34375 3.203125 3.21875 8.578125l-9.15625 1.25q-0.625 -4.28125 -3.625 -6.671875q-3.0 -2.390625 -8.453125 -2.390625q-6.46875 0 -9.234375 2.140625q-2.75 2.125 -2.75 4.984375q0 1.828125 1.140625 3.28125q1.15625 1.515625 3.59375 2.5q1.40625 0.53125 8.28125 2.40625q9.953125 2.65625 13.875 4.34375q3.9375 1.6875 6.171875 4.921875q2.25 3.21875 2.25 8.015625q0 4.6875 -2.734375 8.828125q-2.734375 4.140625 -7.890625 6.40625q-5.15625 2.265625 -11.671875 2.265625q-10.78125 0 -16.4375 -4.46875q-5.640625 -4.484375 -7.203125 -13.296875z" fill-rule="nonzero"/><path fill="#010000" fill-opacity="0.0" d="m1593.682 182.9834l0 0l0 122.64426l0 0l0 -122.64426z" fill-rule="nonzero"/><path fill="#000000" fill-opacity="0.0" d="m490.27298 428.65353c170.34647 0 340.6929 86.75589 340.6929 173.51181" fill-rule="evenodd"/><path stroke="#38761d" stroke-width="8.0" stroke-linejoin="round" stroke-linecap="butt" d="m490.27298 428.65353c85.17319 0 170.34647 21.688995 234.22635 54.222443c31.940002 16.266754 58.55658 35.244568 77.18823 55.578003c4.657898 5.083313 8.816772 10.251465 12.434998 15.483093c0.4522705 0.65393066 0.8960571 1.3088379 1.3313599 1.9647217l0.45141602 0.68743896" fill-rule="evenodd"/><path stroke="#38761d" stroke-width="8.0" stroke-linecap="butt" d="m803.35876 560.7352l23.937622 30.3255l1.1555786 -38.617493z" fill-rule="evenodd"/><path fill="#000000" fill-opacity="0.0" d="m253.04462 310.7638l237.22836 0l0 235.77954l-237.22836 0z" fill-rule="evenodd"/><path fill="#38761d" d="m260.43524 414.25354l0 -42.953125l5.6875 0l0 37.890625l21.15625 0l0 5.0625l-26.84375 0zm33.43164 0l0 -42.953125l8.5625 0l10.15625 30.40625q1.40625 4.25 2.046875 6.359375q0.734375 -2.34375 2.296875 -6.875l10.28125 -29.890625l7.640625 0l0 42.953125l-5.46875 0l0 -35.953125l-12.484375 35.953125l-5.125 0l-12.421875 -36.5625l0 36.5625l-5.484375 0zm47.371094 -9.28125l5.21875 -0.828125q0.4375 3.140625 2.4375 4.8125q2.015625 1.65625 5.625 1.65625q3.625 0 5.375 -1.46875q1.765625 -1.484375 1.765625 -3.46875q0 -1.796875 -1.546875 -2.8125q-1.09375 -0.703125 -5.390625 -1.796875q-5.8125 -1.46875 -8.046875 -2.53125q-2.234375 -1.0625 -3.40625 -2.953125q-1.15625 -1.890625 -1.15625 -4.1875q0 -2.078125 0.953125 -3.84375q0.953125 -1.78125 2.59375 -2.953125q1.234375 -0.90625 3.359375 -1.53125q2.125 -0.625 4.5625 -0.625q3.65625 0 6.421875 1.0625q2.765625 1.046875 4.078125 2.84375q1.328125 1.796875 1.828125 4.8125l-5.15625 0.703125q-0.359375 -2.390625 -2.046875 -3.734375q-1.671875 -1.359375 -4.75 -1.359375q-3.640625 0 -5.1875 1.203125q-1.546875 1.203125 -1.546875 2.8125q0 1.03125 0.640625 1.84375q0.640625 0.859375 2.015625 1.40625q0.796875 0.296875 4.65625 1.34375q5.609375 1.5 7.8125 2.453125q2.21875 0.953125 3.46875 2.765625q1.265625 1.8125 1.265625 4.515625q0 2.640625 -1.546875 4.96875q-1.53125 2.328125 -4.4375 3.609375q-2.890625 1.265625 -6.5625 1.265625q-6.0625 0 -9.25 -2.515625q-3.171875 -2.53125 -4.046875 -7.46875zm69.0918 5.4375q-2.9375 2.5 -5.65625 3.53125q-2.703125 1.015625 -5.8125 1.015625q-5.125 0 -7.875 -2.5q-2.75 -2.515625 -2.75 -6.40625q0 -2.28125 1.03125 -4.171875q1.046875 -1.890625 2.734375 -3.03125q1.6875 -1.140625 3.796875 -1.734375q1.546875 -0.40625 4.6875 -0.796875q6.375 -0.75 9.390625 -1.8125q0.03125 -1.078125 0.03125 -1.375q0 -3.21875 -1.484375 -4.546875q-2.03125 -1.78125 -6.015625 -1.78125q-3.71875 0 -5.5 1.3125q-1.765625 1.296875 -2.609375 4.609375l-5.15625 -0.703125q0.703125 -3.3125 2.3125 -5.34375q1.609375 -2.046875 4.65625 -3.140625q3.046875 -1.09375 7.0625 -1.09375q3.984375 0 6.46875 0.9375q2.5 0.9375 3.671875 2.359375q1.171875 1.421875 1.640625 3.578125q0.265625 1.359375 0.265625 4.875l0 7.03125q0 7.34375 0.328125 9.296875q0.34375 1.953125 1.34375 3.734375l-5.515625 0q-0.8125 -1.640625 -1.046875 -3.84375zm-0.453125 -11.765625q-2.859375 1.171875 -8.609375 1.984375q-3.25 0.46875 -4.59375 1.0625q-1.34375 0.578125 -2.078125 1.703125q-0.734375 1.125 -0.734375 2.515625q0 2.109375 1.59375 3.515625q1.59375 1.40625 4.671875 1.40625q3.046875 0 5.421875 -1.328125q2.375 -1.34375 3.484375 -3.65625q0.84375 -1.796875 0.84375 -5.28125l0 -1.921875zm13.447266 15.609375l0 -31.109375l4.75 0l0 4.71875q1.8125 -3.3125 3.34375 -4.359375q1.546875 -1.0625 3.390625 -1.0625q2.671875 0 5.421875 1.6875l-1.8125 4.90625q-1.9375 -1.15625 -3.859375 -1.15625q-1.734375 0 -3.109375 1.046875q-1.375 1.046875 -1.96875 2.890625q-0.875 2.8125 -0.875 6.140625l0 16.296875l-5.28125 0zm41.339844 -10.015625l5.453125 0.671875q-1.28125 4.765625 -4.78125 7.40625q-3.484375 2.640625 -8.90625 2.640625q-6.8125 0 -10.8125 -4.203125q-4.0 -4.203125 -4.0 -11.796875q0 -7.84375 4.03125 -12.171875q4.046875 -4.34375 10.5 -4.34375q6.234375 0 10.1875 4.25q3.953125 4.234375 3.953125 11.953125q0 0.46875 -0.03125 1.40625l-23.203125 0q0.296875 5.125 2.90625 7.84375q2.609375 2.71875 6.5 2.71875q2.90625 0 4.953125 -1.515625q2.046875 -1.53125 3.25 -4.859375zm-17.3125 -8.53125l17.375 0q-0.34375 -3.921875 -1.984375 -5.890625q-2.53125 -3.046875 -6.546875 -3.046875q-3.625 0 -6.109375 2.4375q-2.46875 2.421875 -2.734375 6.5z" fill-rule="nonzero"/><path fill="#38761d" d="m264.85712 486.25354l-4.890625 0l0 -42.953125l5.28125 0l0 15.328125q3.34375 -4.1875 8.515625 -4.1875q2.875 0 5.4375 1.15625q2.5625 1.15625 4.21875 3.25q1.65625 2.09375 2.59375 5.0625q0.9375 2.953125 0.9375 6.3125q0 8.0 -3.953125 12.375q-3.953125 4.359375 -9.484375 4.359375q-5.515625 0 -8.65625 -4.59375l0 3.890625zm-0.046875 -15.796875q0 5.59375 1.515625 8.09375q2.5 4.0625 6.734375 4.0625q3.46875 0 5.984375 -3.0q2.515625 -3.0 2.515625 -8.953125q0 -6.09375 -2.421875 -8.984375q-2.40625 -2.90625 -5.84375 -2.90625q-3.453125 0 -5.96875 3.015625q-2.515625 3.0 -2.515625 8.671875zm28.58789 -21.09375l0 -6.0625l5.28125 0l0 6.0625l-5.28125 0zm0 36.890625l0 -31.109375l5.28125 0l0 31.109375l-5.28125 0zm33.61133 -3.84375q-2.9375 2.5 -5.65625 3.53125q-2.703125 1.015625 -5.8125 1.015625q-5.125 0 -7.875 -2.5q-2.75 -2.515625 -2.75 -6.40625q0 -2.28125 1.03125 -4.171875q1.046875 -1.890625 2.734375 -3.03125q1.6875 -1.140625 3.796875 -1.734375q1.546875 -0.40625 4.6875 -0.796875q6.375 -0.75 9.390625 -1.8125q0.03125 -1.078125 0.03125 -1.375q0 -3.21875 -1.484375 -4.546875q-2.03125 -1.78125 -6.015625 -1.78125q-3.71875 0 -5.5 1.3125q-1.765625 1.296875 -2.609375 4.609375l-5.15625 -0.703125q0.703125 -3.3125 2.3125 -5.34375q1.609375 -2.046875 4.65625 -3.140625q3.046875 -1.09375 7.0625 -1.09375q3.984375 0 6.46875 0.9375q2.5 0.9375 3.671875 2.359375q1.171875 1.421875 1.640625 3.578125q0.265625 1.359375 0.265625 4.875l0 7.03125q0 7.34375 0.328125 9.296875q0.34375 1.953125 1.34375 3.734375l-5.515625 0q-0.8125 -1.640625 -1.046875 -3.84375zm-0.453125 -11.765625q-2.859375 1.171875 -8.609375 1.984375q-3.25 0.46875 -4.59375 1.0625q-1.34375 0.578125 -2.078125 1.703125q-0.734375 1.125 -0.734375 2.515625q0 2.109375 1.59375 3.515625q1.59375 1.40625 4.671875 1.40625q3.046875 0 5.421875 -1.328125q2.375 -1.34375 3.484375 -3.65625q0.84375 -1.796875 0.84375 -5.28125l0 -1.921875zm11.400391 6.328125l5.21875 -0.828125q0.4375 3.140625 2.4375 4.8125q2.015625 1.65625 5.625 1.65625q3.625 0 5.375 -1.46875q1.765625 -1.484375 1.765625 -3.46875q0 -1.796875 -1.546875 -2.8125q-1.09375 -0.703125 -5.390625 -1.796875q-5.8125 -1.46875 -8.046875 -2.53125q-2.234375 -1.0625 -3.40625 -2.953125q-1.15625 -1.890625 -1.15625 -4.1875q0 -2.078125 0.953125 -3.84375q0.953125 -1.78125 2.59375 -2.953125q1.234375 -0.90625 3.359375 -1.53125q2.125 -0.625 4.5625 -0.625q3.65625 0 6.421875 1.0625q2.765625 1.046875 4.078125 2.84375q1.328125 1.796875 1.828125 4.8125l-5.15625 0.703125q-0.359375 -2.390625 -2.046875 -3.734375q-1.671875 -1.359375 -4.75 -1.359375q-3.640625 0 -5.1875 1.203125q-1.546875 1.203125 -1.546875 2.8125q0 1.03125 0.640625 1.84375q0.640625 0.859375 2.015625 1.40625q0.796875 0.296875 4.65625 1.34375q5.609375 1.5 7.8125 2.453125q2.21875 0.953125 3.46875 2.765625q1.265625 1.8125 1.265625 4.515625q0 2.640625 -1.546875 4.96875q-1.53125 2.328125 -4.4375 3.609375q-2.890625 1.265625 -6.5625 1.265625q-6.0625 0 -9.25 -2.515625q-3.171875 -2.53125 -4.046875 -7.46875zm53.40625 -0.734375l5.453125 0.671875q-1.28125 4.765625 -4.78125 7.40625q-3.484375 2.640625 -8.90625 2.640625q-6.8125 0 -10.8125 -4.203125q-4.0 -4.203125 -4.0 -11.796875q0 -7.84375 4.03125 -12.171875q4.046875 -4.34375 10.5 -4.34375q6.234375 0 10.1875 4.25q3.953125 4.234375 3.953125 11.953125q0 0.46875 -0.03125 1.40625l-23.203125 0q0.296875 5.125 2.90625 7.84375q2.609375 2.71875 6.5 2.71875q2.90625 0 4.953125 -1.515625q2.046875 -1.53125 3.25 -4.859375zm-17.3125 -8.53125l17.375 0q-0.34375 -3.921875 -1.984375 -5.890625q-2.53125 -3.046875 -6.546875 -3.046875q-3.625 0 -6.109375 2.4375q-2.46875 2.421875 -2.734375 6.5zm49.572266 18.546875l0 -3.921875q-2.953125 4.625 -8.703125 4.625q-3.71875 0 -6.84375 -2.046875q-3.109375 -2.0625 -4.828125 -5.734375q-1.71875 -3.671875 -1.71875 -8.453125q0 -4.65625 1.546875 -8.453125q1.5625 -3.796875 4.671875 -5.8125q3.109375 -2.015625 6.9375 -2.015625q2.8125 0 5.0 1.1875q2.203125 1.1875 3.59375 3.078125l0 -15.40625l5.234375 0l0 42.953125l-4.890625 0zm-16.671875 -15.53125q0 5.984375 2.515625 8.9375q2.53125 2.953125 5.953125 2.953125q3.453125 0 5.875 -2.8125q2.421875 -2.828125 2.421875 -8.640625q0 -6.375 -2.46875 -9.359375q-2.453125 -3.0 -6.0625 -3.0q-3.515625 0 -5.875 2.875q-2.359375 2.875 -2.359375 9.046875z" fill-rule="nonzero"/><path fill="#000000" fill-opacity="0.0" d="m1270.3124 1233.3124l340.69287 0l0 145.44873l-340.69287 0z" fill-rule="evenodd"/><path fill="#38761d" d="m1273.2186 1291.6367l16.5 -42.953125l6.125 0l17.578125 42.953125l-6.46875 0l-5.015625 -13.015625l-17.953125 0l-4.71875 13.015625l-6.046875 0zm12.40625 -17.640625l14.546875 0l-4.46875 -11.890625q-2.0625 -5.421875 -3.046875 -8.90625q-0.828125 4.125 -2.328125 8.203125l-4.703125 12.59375zm31.597656 17.640625l0 -31.109375l4.75 0l0 4.71875q1.8125 -3.3125 3.34375 -4.359375q1.546875 -1.0625 3.390625 -1.0625q2.671875 0 5.421875 1.6875l-1.8125 4.90625q-1.9375 -1.15625 -3.859375 -1.15625q-1.734375 0 -3.109375 1.046875q-1.375 1.046875 -1.96875 2.890625q-0.875 2.8125 -0.875 6.140625l0 16.296875l-5.28125 0zm41.339844 -10.015625l5.453125 0.671875q-1.28125 4.765625 -4.78125 7.40625q-3.484375 2.640625 -8.90625 2.640625q-6.8125 0 -10.8125 -4.203125q-4.0 -4.203125 -4.0 -11.796875q0 -7.84375 4.03125 -12.171875q4.046875 -4.34375 10.5 -4.34375q6.234375 0 10.1875 4.25q3.953125 4.234375 3.953125 11.953125q0 0.46875 -0.03125 1.40625l-23.203125 0q0.296875 5.125 2.90625 7.84375q2.609375 2.71875 6.5 2.71875q2.90625 0 4.953125 -1.515625q2.046875 -1.53125 3.25 -4.859375zm-17.3125 -8.53125l17.375 0q-0.34375 -3.921875 -1.984375 -5.890625q-2.53125 -3.046875 -6.546875 -3.046875q-3.625 0 -6.109375 2.4375q-2.46875 2.421875 -2.734375 6.5zm46.492188 18.546875l0 -42.953125l5.6875 0l0 37.890625l21.15625 0l0 5.0625l-26.84375 0zm33.43164 0l0 -42.953125l8.5625 0l10.15625 30.40625q1.40625 4.25 2.046875 6.359375q0.734375 -2.34375 2.296875 -6.875l10.28125 -29.890625l7.640625 0l0 42.953125l-5.46875 0l0 -35.953125l-12.484375 35.953125l-5.125 0l-12.421875 -36.5625l0 36.5625l-5.484375 0zm47.371094 -9.28125l5.21875 -0.828125q0.4375 3.140625 2.4375 4.8125q2.015625 1.65625 5.625 1.65625q3.625 0 5.375 -1.46875q1.765625 -1.484375 1.765625 -3.46875q0 -1.796875 -1.546875 -2.8125q-1.09375 -0.703125 -5.390625 -1.796875q-5.8125 -1.46875 -8.046875 -2.53125q-2.234375 -1.0625 -3.40625 -2.953125q-1.15625 -1.890625 -1.15625 -4.1875q0 -2.078125 0.953125 -3.84375q0.953125 -1.78125 2.59375 -2.953125q1.234375 -0.90625 3.359375 -1.53125q2.125 -0.625 4.5625 -0.625q3.65625 0 6.421875 1.0625q2.765625 1.046875 4.078125 2.84375q1.328125 1.796875 1.828125 4.8125l-5.15625 0.703125q-0.359375 -2.390625 -2.046875 -3.734375q-1.671875 -1.359375 -4.75 -1.359375q-3.640625 0 -5.1875 1.203125q-1.546875 1.203125 -1.546875 2.8125q0 1.03125 0.640625 1.84375q0.640625 0.859375 2.015625 1.40625q0.796875 0.296875 4.65625 1.34375q5.609375 1.5 7.8125 2.453125q2.21875 0.953125 3.46875 2.765625q1.265625 1.8125 1.265625 4.515625q0 2.640625 -1.546875 4.96875q-1.53125 2.328125 -4.4375 3.609375q-2.890625 1.265625 -6.5625 1.265625q-6.0625 0 -9.25 -2.515625q-3.171875 -2.53125 -4.046875 -7.46875z" fill-rule="nonzero"/><path fill="#38761d" d="m1297.6561 1363.6367l0 -4.578125q-3.625 5.28125 -9.875 5.28125q-2.75 0 -5.140625 -1.046875q-2.390625 -1.0625 -3.546875 -2.65625q-1.15625 -1.59375 -1.625 -3.921875q-0.3125 -1.546875 -0.3125 -4.921875l0 -19.265625l5.265625 0l0 17.25q0 4.125 0.328125 5.5625q0.5 2.078125 2.109375 3.265625q1.609375 1.1875 3.984375 1.1875q2.375 0 4.453125 -1.203125q2.078125 -1.21875 2.9375 -3.3125q0.875 -2.09375 0.875 -6.078125l0 -16.671875l5.265625 0l0 31.109375l-4.71875 0zm12.978516 0l0 -31.109375l4.75 0l0 4.421875q3.421875 -5.125 9.90625 -5.125q2.8125 0 5.171875 1.015625q2.359375 1.0 3.53125 2.640625q1.171875 1.640625 1.640625 3.890625q0.28125 1.46875 0.28125 5.140625l0 19.125l-5.265625 0l0 -18.921875q0 -3.234375 -0.625 -4.828125q-0.609375 -1.59375 -2.1875 -2.546875q-1.5625 -0.953125 -3.671875 -0.953125q-3.359375 0 -5.8125 2.140625q-2.4375 2.140625 -2.4375 8.109375l0 17.0l-5.28125 0zm38.228516 0l-4.890625 0l0 -42.953125l5.28125 0l0 15.328125q3.34375 -4.1875 8.515625 -4.1875q2.875 0 5.4375 1.15625q2.5625 1.15625 4.21875 3.25q1.65625 2.09375 2.59375 5.0625q0.9375 2.953125 0.9375 6.3125q0 8.0 -3.953125 12.375q-3.953125 4.359375 -9.484375 4.359375q-5.515625 0 -8.65625 -4.59375l0 3.890625zm-0.046875 -15.796875q0 5.59375 1.515625 8.09375q2.5 4.0625 6.734375 4.0625q3.46875 0 5.984375 -3.0q2.515625 -3.0 2.515625 -8.953125q0 -6.09375 -2.421875 -8.984375q-2.40625 -2.90625 -5.84375 -2.90625q-3.453125 0 -5.96875 3.015625q-2.515625 3.0 -2.515625 8.671875zm28.58789 -21.09375l0 -6.0625l5.28125 0l0 6.0625l-5.28125 0zm0 36.890625l0 -31.109375l5.28125 0l0 31.109375l-5.28125 0zm33.61133 -3.84375q-2.9375 2.5 -5.65625 3.53125q-2.703125 1.015625 -5.8125 1.015625q-5.125 0 -7.875 -2.5q-2.75 -2.515625 -2.75 -6.40625q0 -2.28125 1.03125 -4.171875q1.046875 -1.890625 2.734375 -3.03125q1.6875 -1.140625 3.796875 -1.734375q1.546875 -0.40625 4.6875 -0.796875q6.375 -0.75 9.390625 -1.8125q0.03125 -1.078125 0.03125 -1.375q0 -3.21875 -1.484375 -4.546875q-2.03125 -1.78125 -6.015625 -1.78125q-3.71875 0 -5.5 1.3125q-1.765625 1.296875 -2.609375 4.609375l-5.15625 -0.703125q0.703125 -3.3125 2.3125 -5.34375q1.609375 -2.046875 4.65625 -3.140625q3.046875 -1.09375 7.0625 -1.09375q3.984375 0 6.46875 0.9375q2.5 0.9375 3.671875 2.359375q1.171875 1.421875 1.640625 3.578125q0.265625 1.359375 0.265625 4.875l0 7.03125q0 7.34375 0.328125 9.296875q0.34375 1.953125 1.34375 3.734375l-5.515625 0q-0.8125 -1.640625 -1.046875 -3.84375zm-0.453125 -11.765625q-2.859375 1.171875 -8.609375 1.984375q-3.25 0.46875 -4.59375 1.0625q-1.34375 0.578125 -2.078125 1.703125q-0.734375 1.125 -0.734375 2.515625q0 2.109375 1.59375 3.515625q1.59375 1.40625 4.671875 1.40625q3.046875 0 5.421875 -1.328125q2.375 -1.34375 3.484375 -3.65625q0.84375 -1.796875 0.84375 -5.28125l0 -1.921875zm11.400391 6.328125l5.21875 -0.828125q0.4375 3.140625 2.4375 4.8125q2.015625 1.65625 5.625 1.65625q3.625 0 5.375 -1.46875q1.765625 -1.484375 1.765625 -3.46875q0 -1.796875 -1.546875 -2.8125q-1.09375 -0.703125 -5.390625 -1.796875q-5.8125 -1.46875 -8.046875 -2.53125q-2.234375 -1.0625 -3.40625 -2.953125q-1.15625 -1.890625 -1.15625 -4.1875q0 -2.078125 0.953125 -3.84375q0.953125 -1.78125 2.59375 -2.953125q1.234375 -0.90625 3.359375 -1.53125q2.125 -0.625 4.5625 -0.625q3.65625 0 6.421875 1.0625q2.765625 1.046875 4.078125 2.84375q1.328125 1.796875 1.828125 4.8125l-5.15625 0.703125q-0.359375 -2.390625 -2.046875 -3.734375q-1.671875 -1.359375 -4.75 -1.359375q-3.640625 0 -5.1875 1.203125q-1.546875 1.203125 -1.546875 2.8125q0 1.03125 0.640625 1.84375q0.640625 0.859375 2.015625 1.40625q0.796875 0.296875 4.65625 1.34375q5.609375 1.5 7.8125 2.453125q2.21875 0.953125 3.46875 2.765625q1.265625 1.8125 1.265625 4.515625q0 2.640625 -1.546875 4.96875q-1.53125 2.328125 -4.4375 3.609375q-2.890625 1.265625 -6.5625 1.265625q-6.0625 0 -9.25 -2.515625q-3.171875 -2.53125 -4.046875 -7.46875zm53.40625 -0.734375l5.453125 0.671875q-1.28125 4.765625 -4.78125 7.40625q-3.484375 2.640625 -8.90625 2.640625q-6.8125 0 -10.8125 -4.203125q-4.0 -4.203125 -4.0 -11.796875q0 -7.84375 4.03125 -12.171875q4.046875 -4.34375 10.5 -4.34375q6.234375 0 10.1875 4.25q3.953125 4.234375 3.953125 11.953125q0 0.46875 -0.03125 1.40625l-23.203125 0q0.296875 5.125 2.90625 7.84375q2.609375 2.71875 6.5 2.71875q2.90625 0 4.953125 -1.515625q2.046875 -1.53125 3.25 -4.859375zm-17.3125 -8.53125l17.375 0q-0.34375 -3.921875 -1.984375 -5.890625q-2.53125 -3.046875 -6.546875 -3.046875q-3.625 0 -6.109375 2.4375q-2.46875 2.421875 -2.734375 6.5zm49.572266 18.546875l0 -3.921875q-2.953125 4.625 -8.703125 4.625q-3.71875 0 -6.84375 -2.046875q-3.109375 -2.0625 -4.828125 -5.734375q-1.71875 -3.671875 -1.71875 -8.453125q0 -4.65625 1.546875 -8.453125q1.5625 -3.796875 4.671875 -5.8125q3.109375 -2.015625 6.9375 -2.015625q2.8125 0 5.0 1.1875q2.203125 1.1875 3.59375 3.078125l0 -15.40625l5.234375 0l0 42.953125l-4.890625 0zm-16.671875 -15.53125q0 5.984375 2.515625 8.9375q2.53125 2.953125 5.953125 2.953125q3.453125 0 5.875 -2.8125q2.421875 -2.828125 2.421875 -8.640625q0 -6.375 -2.46875 -9.359375q-2.453125 -3.0 -6.0625 -3.0q-3.515625 0 -5.875 2.875q-2.359375 2.875 -2.359375 9.046875zm39.728516 4.953125q-0.03125 -1.046875 -0.03125 -1.578125q0 -3.109375 0.875 -5.359375q0.65625 -1.703125 2.09375 -3.4375q1.046875 -1.25 3.78125 -3.671875q2.75 -2.421875 3.5625 -3.84375q0.828125 -1.4375 0.828125 -3.140625q0 -3.078125 -2.40625 -5.40625q-2.40625 -2.328125 -5.890625 -2.328125q-3.375 0 -5.625 2.109375q-2.25 2.109375 -2.953125 6.59375l-5.421875 -0.65625q0.734375 -6.0 4.34375 -9.1875q3.625 -3.203125 9.5625 -3.203125q6.3125 0 10.0625 3.4375q3.75 3.421875 3.75 8.28125q0 2.8125 -1.328125 5.1875q-1.3125 2.375 -5.15625 5.78125q-2.578125 2.28125 -3.375 3.375q-0.78125 1.078125 -1.171875 2.484375q-0.375 1.40625 -0.4375 4.5625l-5.0625 0zm-0.328125 10.578125l0 -6.0l6.015625 0l0 6.0l-6.015625 0z" fill-rule="nonzero"/><path fill="#000000" fill-opacity="0.0" d="m1270.3124 1306.0367c-223.00793 0 -446.0158 -112.15747 -446.0158 -224.31494" fill-rule="evenodd"/><path stroke="#38761d" stroke-width="8.0" stroke-linejoin="round" stroke-linecap="butt" d="m1270.3124 1306.0367c-111.50403 0 -223.00793 -28.039429 -306.63586 -70.09839c-41.813965 -21.029541 -76.658936 -45.563965 -101.050476 -71.85095c-6.0978394 -6.5716553 -11.542358 -13.25293 -16.279114 -20.016357c-2.3683472 -3.3817139 -4.5597534 -6.7839355 -6.567505 -10.203247c-1.0038452 -1.7097168 -1.9616699 -3.423706 -2.8727417 -5.1414795l-0.3187256 -0.60498047" fill-rule="evenodd"/><path stroke="#38761d" stroke-width="8.0" stroke-linecap="butt" d="m849.3612 1124.7377l-22.069824 -31.710571l-3.4767456 38.477905z" fill-rule="evenodd"/></g></svg>